<svg width="1437" height="342" viewBox="0 0 1437 342" fill="none" xmlns="http://www.w3.org/2000/svg">
<g clip-path="url(#clip0_392_92)">
<path d="M210.143 221.161H114.079L97.1261 267.63H73.2188L146.68 71.3301H178.846L251.437 267.63H227.53L210.143 221.161ZM202.753 200.315L163.197 92.1761H161.459L121.903 200.315H202.753Z" fill="black"/>
<path d="M304.033 71.3301H366.192C406.183 71.3301 430.09 94.3475 430.09 128.657C430.09 157.754 414.007 180.771 383.58 186.417L436.176 267.63H408.791L359.672 188.154H326.637V267.63H304.033V71.3301ZM366.192 168.177C389.23 168.177 406.618 154.714 406.618 129.091C406.618 108.245 392.708 91.7418 364.888 91.7418H326.637V168.177H366.192Z" fill="black"/>
<path d="M495.869 71.1826H518.472V155.435H545.423L604.974 71.1826H632.358L564.114 164.99L635.836 267.482H607.582L545.857 176.281H518.472V267.917H495.869V71.1826Z" fill="black"/>
<path d="M694.375 71.3301H806.522V92.1761H717.413V157.32H794.351V177.731H717.413V247.218H809.565V267.63H694.375V71.3301Z" fill="black"/>
<path d="M875.201 71.3301H914.322L970.831 246.784H972.569L1029.08 71.3301H1068.2V267.63H1046.46V92.1761H1044.73L987.783 267.63H956.486L899.109 92.1761H897.37V267.63H875.636V71.3301H875.201Z" fill="black"/>
<path d="M1225.55 210.738H1248.16C1248.16 233.321 1266.85 251.561 1296.41 251.561C1322.05 251.561 1340.74 238.967 1340.74 218.555C1340.74 157.32 1232.07 199.881 1232.07 121.708C1232.51 93.4795 1255.55 69.1592 1295.1 69.1592C1325.1 69.1592 1359.87 85.228 1359.87 126.051H1336.4C1336.4 103.468 1321.62 90.0052 1294.67 90.0052C1266.85 90.0052 1254.68 105.64 1254.68 121.708C1254.68 175.126 1363.78 137.777 1363.78 217.253C1363.78 248.087 1338.57 272.842 1295.54 272.842C1256.85 272.842 1225.55 247.219 1225.55 210.738Z" fill="black"/>
<path d="M1168.18 70.8955H1145.57V268.064H1168.18V70.8955Z" fill="black"/>
</g>
<defs>
<clipPath id="clip0_392_92">
<rect width="1437" height="342" fill="white"/>
</clipPath>
</defs>
</svg>
