<svg width="566.93" height="74.253" version="1.1" viewBox="0 0 566.93 74.253" xml:space="preserve" xmlns="http://www.w3.org/2000/svg"><g transform="matrix(1.3333 0 0 -1.3333 0 74.253)"><g transform="scale(.1)" fill="#040606"><path d="m0.0039062 405.31c0 42.488 17.695 78.355 53.109 107.61 35.41 29.246 81.293 43.879 137.64 43.879s100.53-14.321 132.56-42.957c27.808-24.867 44.703-57.758 50.687-98.664 1.465-10.032-6.105-19.11-16.25-19.11h-53.535c-8.059 0-15.188 5.731-16.395 13.696-3.34 22.066-12.441 40.289-27.324 54.656-17.867 17.238-42.648 25.867-74.359 25.867-31.727 0-56.668-7.551-74.824-22.629-18.172-15.097-27.247-34.496-27.247-58.195 0-23.711 10.301-42.031 30.942-54.961 20.625-12.941 45.566-22.336 74.824-28.176 29.238-5.863 58.5-12.637 87.754-20.32 29.242-7.711 54.184-22.176 74.824-43.418 20.625-21.25 30.945-51.43 30.945-90.527 0-39.125-17.707-72.051-53.113-98.84-35.422-26.797-81.449-40.188-138.1-40.188-56.664 0-102.07 14.16-136.25 42.492-29.66 24.578-47.613 57.278-53.852 98.094-1.5391 10.07 6.043 19.223 16.234 19.223h53.398c8.082 0 15.254-5.703 16.508-13.696 3.4609-22.019 13.019-40.093 28.676-54.199 18.781-16.941 44.644-25.406 77.597-25.406 32.938 0 58.801 7.078 77.594 21.25 18.781 14.156 28.176 32.176 28.176 54.043 0 21.844-7.391 39.258-22.168 52.187-14.781 12.926-33.258 21.856-55.426 26.786-22.168 4.921-46.348 10.769-72.516 17.546-26.179 6.774-50.34 14.004-72.515 21.715-22.168 7.692-40.645 21.086-55.422 40.188-14.781 19.078-22.168 43.09-22.168 72.051"/><path d="m1643.1 405.31c0 42.488 17.7 78.355 53.12 107.61 35.4 29.246 81.28 43.879 137.63 43.879 56.36 0 100.54-14.321 132.57-42.957 27.83-24.895 44.73-57.828 50.7-98.789 1.45-9.973-6.06-18.985-16.14-18.985h-53.66c-8.06 0-15.19 5.731-16.4 13.696-3.34 22.066-12.45 40.289-27.31 54.656-17.88 17.238-42.67 25.867-74.37 25.867-31.73 0-56.67-7.551-74.83-22.629-18.17-15.097-27.25-34.496-27.25-58.195 0-23.711 10.31-42.031 30.94-54.961 20.63-12.941 45.58-22.336 74.83-28.176 29.24-5.863 58.5-12.637 87.76-20.32 29.24-7.711 54.18-22.176 74.82-43.418 20.63-21.25 30.95-51.43 30.95-90.527 0-39.125-17.71-72.051-53.12-98.84-35.42-26.797-81.44-40.188-138.1-40.188-56.67 0-102.07 14.16-136.25 42.492-29.69 24.602-47.65 57.344-53.87 98.211-1.52 10.012 6 19.106 16.12 19.106h53.53c8.08 0 15.26-5.703 16.51-13.696 3.46-22.019 13.01-40.093 28.68-54.199 18.77-16.941 44.65-25.406 77.59-25.406s58.8 7.078 77.59 21.25c18.78 14.156 28.19 32.176 28.19 54.043 0 21.844-7.4 39.258-22.19 52.187-14.77 12.926-33.24 21.856-55.41 26.786-22.17 4.921-46.35 10.769-72.52 17.546-26.18 6.774-50.34 14.004-72.51 21.715-22.17 7.692-40.65 21.086-55.43 40.188-14.78 19.078-22.17 43.09-22.17 72.051"/><path d="m2446.4 156.82c33.56 34.485 50.35 80.372 50.35 137.64 0 57.273-16.79 103.14-50.35 137.64-33.58 34.48-73.9 51.73-121.01 51.73-47.12 0-87.45-16.625-121.01-49.883-33.58-33.257-50.34-78.515-50.34-135.79 0-57.269 16.93-103.77 50.81-139.49 33.85-35.722 74.2-53.57 121-53.57s86.97 17.223 120.55 51.726zm-303.22-49.421c-46.19 49.57-69.28 113-69.28 190.3 0 77.274 22.93 139.79 68.82 187.52 45.87 47.715 103.6 71.586 173.19 71.586 43.11 0 80.83-10.16 113.16-30.481 20.01-12.574 37.02-27.511 51-44.8 7.53-9.297 22.44-4.25 22.44 7.71v42.918c0 9.024 7.33 16.34 16.35 16.34h47.02c9.02 0 16.34-7.316 16.34-16.34v-474.45c0-9.0351-7.32-16.348-16.34-16.348h-47.02c-9.02 0-16.35 7.3125-16.35 16.348v43.567c0 12.183-15.23 17.254-22.85 7.742-13.92-17.383-30.77-32.383-50.59-45.02-32.33-20.645-70.05-30.949-113.16-30.949-68.97 0-126.54 24.777-172.73 74.36"/><path d="m3273.2 548.49h50.24c11.04 0 18.91-10.718 15.59-21.25l-149.52-474.46c-2.13-6.8047-8.44-11.434-15.58-11.434h-62.51c-7.3 0-13.71 4.8437-15.71 11.875l-98.49 346.3c-3.63 12.77-21.73 12.77-25.36 0l-98.49-346.3c-2-7.0313-8.42-11.875-15.72-11.875h-63.45c-7.13 0-13.43 4.6211-15.57 11.406l-150.38 474.46c-3.34 10.535 4.53 21.277 15.57 21.277h52.09c7.34 0 13.79-4.898 15.75-11.972l101.39-365.66c3.56-12.856 21.77-12.883 25.39-0.051l103.02 365.78c1.99 7.047 8.42 11.91 15.73 11.91h61.89c7.42 0 13.89-4.98 15.8-12.144l96.94-364.71c3.46-13 21.88-13.078 25.44-0.102l100.18 364.95c1.95 7.093 8.4 12.011 15.76 12.011"/><path d="m1459.6 145.27c-29.56-28.632-66.65-42.96-111.31-42.96-44.64 0-82.05 14.64-112.23 43.886-26.43 25.625-41.52 58.703-45.28 99.199-0.87 9.485 6.77 17.649 16.29 17.649h283.47c9.86 0 17.54-8.75 16.21-18.516-5.63-41.179-21.35-74.265-47.15-99.258zm-901.92 299.29c29.563 28.633 66.657 42.954 111.32 42.954 44.636 0 82.054-14.633 112.23-43.883 26.422-25.625 41.52-58.696 45.273-99.199 0.879-9.481-6.765-17.653-16.292-17.653h-283.46c-9.86 0-17.539 8.75-16.207 18.524 5.625 41.175 21.343 74.265 47.14 99.257zm969.36 40.184c-45.57 48.039-104.69 72.051-177.36 72.051v0.054c-187.45 0-283.73-128.08-368.69-241.08-82.528-109.79-160.48-213.48-313.39-213.48v0.016c-45.582 0-82.992 14.621-112.24 43.878-25.629 25.625-40.981 59.407-46.039 101.34-1.172 9.7 6.461 18.293 16.226 18.293h362.43c13.601 0 25.234 10.317 26.246 23.875 0.625 8.356 0.937 17.028 0.937 26.008 0 70.203-22.328 127.93-66.972 173.2-44.653 45.258-103.77 67.895-177.36 67.895-73.597 0-133.48-23.871-179.67-71.586-46.183-47.735-69.281-111.02-69.281-189.83 0-78.84 22.778-142.26 68.36-190.29 45.566-48.039 104.69-72.055 177.36-72.055v0.0898c187.44 0 283.73 128.07 368.68 241.08 82.53 109.78 160.49 213.48 313.39 213.48v-0.16c45.58 0 82.99-14.618 112.24-43.875 25.62-25.618 40.97-59.403 46.04-101.34 1.16-9.696-6.47-18.289-16.23-18.289h-362.44c-13.59 0-25.22-10.321-26.24-23.883-0.62-8.356-0.94-17.024-0.94-26 0-70.211 22.33-127.94 66.97-173.21 44.66-45.254 103.78-67.895 177.36-67.895 73.6 0 133.48 23.879 179.67 71.594 46.19 47.726 69.28 111.01 69.28 189.83 0 78.836-22.77 142.26-68.35 190.29"/><path d="m3386.8 331.3c-3.64 0-7.07-0.66-10.32-2-3.25-1.321-6.16-3.278-8.77-5.84-2.59-2.566-4.78-5.707-6.57-9.441-1.79-3.731-3.04-8.036-3.75-12.911h56.68v1.371c-0.2 3.504-0.86 6.973-2 10.418-1.14 3.434-2.81 6.528-5.02 9.25-2.2 2.719-4.99 4.938-8.32 6.622-3.35 1.691-7.32 2.531-11.93 2.531zm2.33-94.465c-7.39 0-14.2 1.269-20.4 3.809-6.2 2.531-11.5 6.066-15.91 10.605-4.43 4.543-7.86 9.941-10.33 16.168-2.47 6.234-3.7 13.016-3.7 20.352v4.089c0 8.5 1.37 16.114 4.08 22.832 2.74 6.719 6.35 12.403 10.87 17.043 4.51 4.649 9.63 8.204 15.39 10.668 5.75 2.469 11.63 3.696 17.67 3.696 7.6 0 14.23-1.313 19.91-3.934 5.69-2.637 10.41-6.273 14.18-10.914 3.76-4.633 6.56-10.113 8.42-16.41 1.85-6.289 2.76-13.117 2.76-20.449v-8.082h-75.26c0.19-4.805 1.12-9.305 2.77-13.536 1.66-4.214 3.93-7.902 6.82-11.054 2.89-3.145 6.35-5.625 10.37-7.442 4.03-1.816 8.48-2.734 13.34-2.734 6.43 0 12.14 1.301 17.14 3.906 4.99 2.586 9.16 6.028 12.46 10.317l11.01-8.578c-1.75-2.657-3.94-5.196-6.58-7.637-2.62-2.442-5.66-4.602-9.1-6.477-3.44-1.89-7.33-3.394-11.69-4.527-4.34-1.137-9.09-1.711-14.22-1.711"/><path d="m3501.6 264.7 1.66-6.531 1.75 6.531 29.51 79.465h18.39l-42.94-105.37h-13.73l-43.34 105.37h18.51l30.19-79.465"/><path d="m3622.2 331.3c-3.64 0-7.07-0.66-10.32-2-3.25-1.321-6.17-3.278-8.77-5.84-2.59-2.566-4.78-5.707-6.57-9.441-1.79-3.731-3.04-8.036-3.75-12.911h56.68v1.371c-0.2 3.504-0.86 6.973-2 10.418-1.14 3.434-2.82 6.528-5.02 9.25-2.2 2.719-4.99 4.938-8.32 6.622-3.35 1.691-7.32 2.531-11.93 2.531zm2.33-94.465c-7.39 0-14.19 1.269-20.4 3.809-6.2 2.531-11.5 6.066-15.91 10.605-4.43 4.543-7.86 9.941-10.33 16.168-2.47 6.234-3.7 13.016-3.7 20.352v4.089c0 8.5 1.37 16.114 4.08 22.832 2.74 6.719 6.35 12.403 10.87 17.043 4.52 4.649 9.63 8.204 15.39 10.668 5.75 2.469 11.64 3.696 17.67 3.696 7.6 0 14.23-1.313 19.91-3.934 5.69-2.637 10.41-6.273 14.18-10.914 3.75-4.633 6.56-10.113 8.42-16.41 1.86-6.289 2.76-13.117 2.76-20.449v-8.082h-75.26c0.2-4.805 1.12-9.305 2.77-13.536 1.66-4.214 3.93-7.902 6.82-11.054 2.89-3.145 6.35-5.625 10.36-7.442 4.04-1.816 8.49-2.734 13.35-2.734 6.43 0 12.14 1.301 17.14 3.906 4.99 2.586 9.16 6.028 12.46 10.317l11.01-8.578c-1.75-2.657-3.94-5.196-6.58-7.637-2.62-2.442-5.66-4.602-9.11-6.477-3.42-1.89-7.33-3.394-11.68-4.527-4.34-1.137-9.09-1.711-14.22-1.711"/><path d="m3764.7 346.1c1.69 0 3.45-0.047 5.26-0.141 1.82-0.098 3.56-0.269 5.22-0.484 1.65-0.231 3.17-0.508 4.57-0.828 1.4-0.329 2.55-0.692 3.46-1.075l-2.44-17.629c-3.51 0.782-6.83 1.348-9.98 1.711-3.15 0.344-6.44 0.528-9.88 0.528-8.45 0-15.27-1.914-20.5-5.742-5.22-3.829-9.08-9.192-11.54-16.067v-67.582h-18.12v105.37h17.14l0.87-16.75c4.29 5.77 9.44 10.332 15.44 13.68 6.02 3.336 12.84 5.008 20.5 5.008"/><path d="m3892.1 293.41h-74.49v14.813h74.49v-14.813"/><path d="m3387.5 54.141c3.25 0 6.41 0.5157 9.5 1.5625 3.07 1.043 5.83 2.4883 8.23 4.3242 2.4 1.8594 4.32 4.0352 5.79 6.5352 1.46 2.5 2.22 5.2148 2.29 8.125h17.04c-0.07-4.6758-1.28-9.1289-3.65-13.379-2.37-4.2656-5.53-7.9961-9.5-11.203-3.96-3.211-8.51-5.7813-13.63-7.6953-5.13-1.9141-10.49-2.8789-16.07-2.8789-7.99 0-14.97 1.4375-20.93 4.2851-5.98 2.8633-10.95 6.7109-14.96 11.543-3.99 4.8359-6.99 10.434-9 16.75-2.01 6.3359-3.03 13.008-3.03 20.02v4.0938c0 6.9293 1.02 13.59 3.03 19.949 2.01 6.367 5.01 11.973 9 16.797 4.01 4.844 8.98 8.679 14.96 11.543 5.96 2.859 12.94 4.289 20.93 4.289 6.23 0 11.97-0.988 17.19-2.973 5.23-1.98 9.74-4.676 13.54-8.086 3.79-3.406 6.76-7.437 8.9-12.117 2.15-4.668 3.22-9.68 3.22-15h-17.04c-0.07 3.176-0.77 6.184-2.1 9.004-1.33 2.832-3.12 5.312-5.41 7.449-2.27 2.152-4.98 3.84-8.12 5.063-3.16 1.238-6.54 1.851-10.18 1.851-5.58 0-10.27-1.109-14.07-3.355-3.8-2.239-6.86-5.157-9.21-8.774-2.33-3.59-4-7.625-5.01-12.105-1-4.485-1.51-8.996-1.51-13.535v-4.0938c0-4.6172 0.51-9.1797 1.51-13.684 1.01-4.5195 2.67-8.5742 4.96-12.176 2.31-3.6015 5.36-6.5234 9.16-8.7695 3.8-2.2344 8.53-3.3594 14.17-3.3594"/><path d="m3478.3 131.18c3.77 5.504 8.41 9.812 13.93 12.886 5.53 3.086 11.72 4.668 18.6 4.731 5.52 0 10.53-0.805 15.04-2.383 4.52-1.594 8.36-4.074 11.54-7.453 3.19-3.379 5.64-7.649 7.36-12.813 1.72-5.144 2.58-11.281 2.58-18.347v-66.321h-18.02v66.512c0 8.637-2.06 15.063-6.18 19.277-4.12 4.231-10.01 6.301-17.68 6.243-5.78 0-11.01-1.426-15.72-4.239-4.71-2.832-8.52-6.574-11.45-11.25v-76.543h-18.01v149.58h18.01v-59.879"/><path d="m3615.3 55.215c3.51 0 6.78 0.461 9.84 1.3555 3.05 0.918 5.83 2.1211 8.32 3.6172 2.51 1.4922 4.67 3.1914 6.48 5.1055 1.82 1.914 3.25 3.9179 4.29 5.9843v21.328h-16.76c-10.51 0-18.7-1.5508-24.54-4.6758-5.84-3.1172-8.76-8.0195-8.76-14.699 0-2.6055 0.44-5 1.32-7.2071 0.87-2.2148 2.2-4.0976 3.94-5.6914 1.75-1.5937 3.96-2.8437 6.63-3.7617 2.65-0.8945 5.74-1.3555 9.24-1.3555zm31.84-13.73c-0.71 1.3594-1.28 3.0781-1.7 5.1172-0.42 2.0429-0.73 4.1718-0.93 6.3789-1.81-1.8282-3.83-3.5469-6.07-5.1602-2.25-1.6289-4.72-3.0547-7.41-4.2851-2.7-1.2383-5.57-2.2071-8.62-2.9297-3.05-0.711-6.29-1.0742-9.73-1.0742-5.59 0-10.64 0.8203-15.15 2.4335-4.51 1.629-8.34 3.8165-11.49 6.5821-3.15 2.7539-5.58 6.0429-7.3 9.832-1.72 3.8008-2.59 7.8984-2.59 12.324 0 5.7813 1.16 10.84 3.47 15.188 2.3 4.3516 5.57 7.9649 9.78 10.856 4.22 2.8945 9.29 5.0509 15.24 6.4769 5.94 1.425 12.58 2.148 19.91 2.148h19.68v8.274c0 3.179-0.6 6.035-1.76 8.574-1.17 2.527-2.82 4.683-4.96 6.465-2.15 1.796-4.75 3.171-7.84 4.148-3.09 0.969-6.54 1.453-10.37 1.453-3.58 0-6.77-0.445-9.6-1.363-2.81-0.899-5.2-2.102-7.15-3.598-1.95-1.492-3.46-3.261-4.53-5.308-1.08-2.051-1.61-4.172-1.61-6.368h-18.12c0.08 3.829 1.07 7.579 2.98 11.29 1.92 3.699 4.67 7.019 8.27 9.968 3.62 2.969 7.99 5.352 13.16 7.168 5.16 1.817 11.01 2.727 17.57 2.727 5.98 0 11.52-0.727 16.65-2.199 5.13-1.454 9.56-3.664 13.3-6.622 3.73-2.949 6.67-6.628 8.8-11.042 2.15-4.415 3.23-9.583 3.23-15.493v-48.98c0-3.5078 0.32-7.2187 0.96-11.152 0.66-3.9258 1.56-7.3437 2.73-10.277v-1.5508h-18.8"/><path d="m3711.8 146.86 1.28-15.578c3.83 5.453 8.52 9.719 14.11 12.793 5.59 3.086 11.82 4.668 18.7 4.731 5.52 0 10.53-0.774 15.04-2.336 4.52-1.563 8.36-3.992 11.54-7.305 3.18-3.308 5.64-7.512 7.36-12.617 1.73-5.098 2.57-11.145 2.57-18.164v-66.895h-18.01v66.512c0 4.672-0.52 8.637-1.56 11.887-1.04 3.242-2.58 5.859-4.61 7.89-2.06 2.012-4.56 3.465-7.5 4.368-2.96 0.918-6.35 1.375-10.18 1.375-6.04 0-11.35-1.524-15.93-4.532-4.57-3.015-8.23-6.992-10.96-11.933v-75.567h-18.01v105.37h16.16"/><path d="m3828 93.008c0-5.1367 0.55-10.012 1.62-14.609 1.06-4.6211 2.75-8.6718 5.06-12.176 2.29-3.5079 5.23-6.2891 8.81-8.3243 3.56-2.0468 7.85-3.0742 12.85-3.0742 3.12 0 5.93 0.3789 8.43 1.1211 2.49 0.7539 4.73 1.7969 6.72 3.1641 1.97 1.3711 3.75 2.9922 5.3 4.875 1.56 1.875 2.92 3.9531 4.09 6.2187v48.305c-1.17 2.215-2.53 4.226-4.09 6.043-1.55 1.828-3.34 3.387-5.35 4.726-2.02 1.321-4.26 2.371-6.72 3.118-2.47 0.75-5.21 1.121-8.18 1.121-5.06 0-9.4-1.043-13-3.125-3.61-2.078-6.57-4.883-8.86-8.426-2.31-3.527-4-7.617-5.06-12.258-1.07-4.648-1.62-9.539-1.62-14.656zm-18.01 2.043c0 7.8472 0.96 15.078 2.87 21.668 1.92 6.582 4.69 12.246 8.32 16.992 3.65 4.727 8.05 8.437 13.26 11.102 5.18 2.66 11.06 3.988 17.61 3.988 6.5 0 12.19-1.164 17.1-3.457 4.9-2.309 9.07-5.637 12.51-9.985l0.87 11.496h16.37v-103.12c0-6.9532-1.09-13.117-3.26-18.504-2.18-5.3907-5.23-9.9727-9.15-13.742-3.93-3.75-8.63-6.6133-14.09-8.5547-5.44-1.9531-11.48-2.9297-18.11-2.9297-2.72 0-5.84 0.3125-9.35 0.92969-3.49 0.61328-7.05 1.6211-10.65 3.0156-3.61 1.3984-7.08 3.2734-10.43 5.6055-3.33 2.3359-6.21 5.2226-8.61 8.6523l9.34 10.82c2.21-2.6679 4.48-4.914 6.82-6.7656 2.34-1.8594 4.71-3.332 7.11-4.4375 2.41-1.1015 4.8-1.9023 7.21-2.3828 2.4-0.4961 4.81-0.7305 7.2-0.7305 4.29 0 8.16 0.625 11.58 1.8555 3.45 1.2188 6.39 3.0273 8.82 5.4023 2.43 2.3711 4.3 5.3008 5.6 8.8086 1.31 3.5118 1.95 7.5391 1.95 12.07v9.0585c-3.51-4.0195-7.65-7.0976-12.41-9.1992-4.78-2.1054-10.31-3.1718-16.61-3.1718-6.42 0-12.24 1.3671-17.42 4.1015-5.21 2.7149-9.6 6.4844-13.21 11.289-3.59 4.8047-6.37 10.469-8.32 16.992-1.95 6.5312-2.92 13.555-2.92 21.094v2.043"/><path d="m3967.3 174.51c0 2.976 0.9 5.5 2.68 7.551 1.79 2.039 4.49 3.054 8.14 3.054 3.56 0 6.26-1.015 8.07-3.054 1.82-2.051 2.73-4.575 2.73-7.551 0-2.93-0.91-5.364-2.73-7.305-1.81-1.953-4.51-2.922-8.07-2.922-3.65 0-6.35 0.969-8.14 2.922-1.78 1.941-2.68 4.375-2.68 7.305zm-33.49-27.657h53.84v-89.785h34.38v-15.586h-88.22v15.586h35.83v74.114h-35.83v15.671"/><path d="m4064.9 146.86 1.27-15.578c3.83 5.453 8.52 9.719 14.12 12.793 5.58 3.086 11.8 4.668 18.7 4.731 5.52 0 10.52-0.774 15.04-2.336 4.51-1.563 8.36-3.992 11.53-7.305 3.18-3.308 5.63-7.512 7.36-12.617 1.72-5.098 2.58-11.145 2.58-18.164v-66.895h-18.02v66.512c0 4.672-0.51 8.637-1.55 11.887-1.05 3.242-2.59 5.859-4.63 7.89-2.04 2.012-4.55 3.465-7.5 4.368-2.95 0.918-6.35 1.375-10.17 1.375-6.04 0-11.35-1.524-15.92-4.532-4.58-3.015-8.24-6.992-10.96-11.933v-75.567h-18.02v105.37h16.17"/><path d="m4181.1 93.008c0-5.1367 0.53-10.012 1.61-14.609 1.06-4.6211 2.75-8.6718 5.06-12.176 2.29-3.5079 5.23-6.2891 8.81-8.3243 3.57-2.0468 7.86-3.0742 12.85-3.0742 3.12 0 5.92 0.3789 8.43 1.1211 2.49 0.7539 4.73 1.7969 6.72 3.1641 1.98 1.3711 3.74 2.9922 5.3 4.875 1.57 1.875 2.93 3.9531 4.1 6.2187v48.305c-1.17 2.215-2.53 4.226-4.1 6.043-1.56 1.828-3.33 3.387-5.35 4.726-2.02 1.321-4.26 2.371-6.71 3.118-2.48 0.75-5.21 1.121-8.2 1.121-5.06 0-9.39-1.043-12.99-3.125-3.6-2.078-6.57-4.883-8.86-8.426-2.31-3.527-4-7.617-5.06-12.258-1.08-4.648-1.61-9.539-1.61-14.656zm-18.02 2.043c0 7.8472 0.97 15.078 2.88 21.668 1.91 6.582 4.68 12.246 8.32 16.992 3.63 4.727 8.05 8.437 13.24 11.102 5.2 2.66 11.08 3.988 17.62 3.988 6.49 0 12.19-1.164 17.1-3.457 4.9-2.309 9.07-5.637 12.52-9.985l0.86 11.496h16.37v-103.12c0-6.9532-1.09-13.117-3.27-18.504-2.17-5.3907-5.22-9.9727-9.15-13.742-3.92-3.75-8.62-6.6133-14.08-8.5547-5.44-1.9531-11.48-2.9297-18.1-2.9297-2.73 0-5.84 0.3125-9.35 0.92969-3.51 0.61328-7.06 1.6211-10.65 3.0156-3.62 1.3984-7.09 3.2734-10.43 5.6055-3.34 2.3359-6.22 5.2226-8.62 8.6523l9.35 10.82c2.2-2.6679 4.48-4.914 6.81-6.7656 2.34-1.8594 4.71-3.332 7.1-4.4375 2.42-1.1015 4.81-1.9023 7.22-2.3828 2.39-0.4961 4.81-0.7305 7.2-0.7305 4.29 0 8.15 0.625 11.59 1.8555 3.44 1.2188 6.38 3.0273 8.81 5.4023 2.43 2.3711 4.31 5.3008 5.6 8.8086 1.3 3.5118 1.96 7.5391 1.96 12.07v9.0585c-3.51-4.0195-7.65-7.0976-12.42-9.1992-4.77-2.1054-10.31-3.1718-16.61-3.1718-6.42 0-12.23 1.3671-17.43 4.1015-5.19 2.7149-9.6 6.4844-13.19 11.289-3.6 4.8047-6.39 10.469-8.32 16.992-1.95 6.5312-2.93 13.555-2.93 21.094v2.043"/></g></g></svg>
