<?xml version="1.0" encoding="UTF-8"?>
<svg id="Livello_1" xmlns="http://www.w3.org/2000/svg" version="1.1" viewBox="0 0 1000 466">
  <!-- Generator: Adobe Illustrator 30.1.0, SVG Export Plug-In . SVG Version: 2.1.1 Build 136)  -->
  <defs>
    <style>
      .st0 {
        fill: #1d1d1b;
      }

      .st1 {
        fill: #76b82a;
      }

      .st2 {
        fill: #077bc0;
      }
    </style>
  </defs>
  <path class="st0" d="M473.79,315.96c0,20.74,5.03,35.71,15.09,44.89,10.06,9.19,23.41,13.78,40.07,13.78,4.1,0,8.6-.22,13.46-.65,4.87-.44,9.03-1.19,12.48-2.27.44-1.73.65-3.29.65-4.7v-4.7c0-8.42-1.18-17.06-3.56-25.93-1.95.44-3.95.76-6.01.97-2.06.22-3.94.32-5.68.32-3.89,0-7.13-.43-9.72-1.3-2.6-.86-4.71-2.43-6.33-4.7-1.62-2.27-2.82-5.45-3.57-9.56-.76-4.1-1.14-9.51-1.14-16.21v-170.14c-7.78-1.3-15.36-1.95-22.71-1.95s-15.24.65-23.03,1.95v180.18h0Z"/>
  <path class="st0" d="M631.45,338.65c-2.39.44-5.2.92-8.44,1.46-3.25.54-6.49.81-9.73.81-2.82,0-6.12-.16-9.89-.49-3.79-.33-7.36-1.18-10.71-2.59-3.35-1.4-6.21-3.61-8.6-6.64-2.38-3.02-3.56-7.34-3.56-12.97,0-8.43,3.08-14.52,9.24-18.31,6.17-3.78,14.54-5.68,25.15-5.68,2.37,0,5.08.17,8.11.49,3.02.32,5.84.7,8.44,1.13v42.78h0ZM631.45,266.38c-7.58-.65-14.5-.97-20.77-.97-8.65,0-17.31.92-25.95,2.75-8.66,1.84-16.5,4.87-23.52,9.08-7.03,4.21-12.76,9.83-17.2,16.85-4.43,7.03-6.65,15.72-6.65,26.09s1.79,19.12,5.35,26.25c3.58,7.13,8.66,12.96,15.26,17.5,6.59,4.54,14.49,7.78,23.68,9.72,9.19,1.94,19.3,2.92,30.33,2.92,13.62,0,25.84-1.09,36.66-3.24,10.82-2.16,20-4.43,27.58-6.8v-97.23c0-23.76-6.32-41.05-18.98-51.85-12.65-10.8-30.23-16.21-52.71-16.21-8.23,0-17.09.76-26.6,2.27-9.51,1.51-19.03,3.89-28.54,7.13,0,6.91.75,12.86,2.27,17.83,1.51,4.97,3.78,10.26,6.81,15.88,13.18-4.54,25.62-6.8,37.3-6.8,5.41,0,10.33.32,14.77.97,4.43.65,8.16,1.89,11.19,3.73,3.02,1.84,5.41,4.37,7.13,7.62,1.73,3.24,2.6,7.46,2.6,12.64v3.89h0Z"/>
  <path class="st0" d="M684,372.68c7.78,1.29,15.25,1.94,22.38,1.94s14.93-.65,22.71-1.94v-167.56h-66.83c-1.3,5.62-1.96,11.35-1.96,17.18,0,2.81.17,5.78.49,8.91.33,3.13.82,6.11,1.47,8.91h21.73v132.55h0ZM689.19,178.23c4.32.22,8.22.33,11.68.33,3.68,0,7.62-.11,11.84-.33,4.22-.21,8.17-.65,11.85-1.3.64-3.67,1.08-7.34,1.3-11.02.22-3.67.32-7.24.32-10.7,0-3.67-.1-7.29-.32-10.85-.22-3.56-.65-7.18-1.3-10.86-3.68-.65-7.68-1.14-12.01-1.46-4.33-.32-8.34-.48-12-.48-3.46,0-7.3.16-11.52.48-4.22.32-8.18.82-11.84,1.46-1.29,7.56-1.95,14.8-1.95,21.71s.66,14.37,1.95,21.71c3.66.65,7.68,1.08,12,1.3h0Z"/>
  <path class="st0" d="M736.9,372.68c7.35,1.29,14.92,1.94,22.7,1.94s15.47-.65,23.03-1.94v-236.9c-7.57-1.3-15.25-1.95-23.03-1.95s-15.35.65-22.7,1.95v236.9h0ZM837.8,372.68c8.43,1.29,16.44,1.94,24,1.94,8.23,0,16.76-.65,25.63-1.94l-49.96-90.1,42.83-77.46c-7.78-1.29-15.79-1.94-24.01-1.94-8.66,0-17.2.65-25.63,1.94l-41.52,79.73,48.67,87.83h0Z"/>
  <path class="st0" d="M954.9,338.65c-2.38.44-5.18.92-8.43,1.46-3.24.54-6.49.81-9.73.81-2.81,0-6.11-.16-9.9-.49-3.77-.33-7.35-1.18-10.7-2.59-3.35-1.4-6.23-3.61-8.6-6.64-2.39-3.02-3.57-7.34-3.57-12.97,0-8.43,3.09-14.52,9.24-18.31,6.17-3.78,14.55-5.68,25.14-5.68,2.39,0,5.09.17,8.11.49,3.03.32,5.84.7,8.43,1.13v42.78h0ZM954.9,266.38c-7.57-.65-14.48-.97-20.75-.97-8.66,0-17.3.92-25.96,2.75-8.65,1.84-16.48,4.87-23.51,9.08-7.03,4.21-12.76,9.83-17.2,16.85-4.43,7.03-6.65,15.72-6.65,26.09s1.79,19.12,5.36,26.25c3.56,7.13,8.64,12.96,15.25,17.5,6.59,4.54,14.48,7.78,23.68,9.72,9.2,1.94,19.3,2.92,30.34,2.92,13.62,0,25.84-1.09,36.66-3.24,10.81-2.16,20-4.43,27.58-6.8v-97.23c0-23.76-6.34-41.05-18.99-51.85-12.64-10.8-30.22-16.21-52.71-16.21-8.22,0-17.09.76-26.61,2.27-9.52,1.51-19.03,3.89-28.55,7.13,0,6.91.76,12.86,2.28,17.83,1.51,4.97,3.77,10.26,6.81,15.88,13.18-4.54,25.62-6.8,37.3-6.8,5.41,0,10.32.32,14.76.97,4.43.65,8.17,1.89,11.19,3.73,3.03,1.84,5.4,4.37,7.13,7.62,1.73,3.24,2.59,7.46,2.59,12.64v3.89h0Z"/>
  <g>
    <path class="st0" d="M409.86,253.14c3.35-2.75,5.63-5.57,6.83-8.44,1.2-2.87,1.8-5.75,1.8-8.62,0-4.55-1.5-8.26-4.49-11.14-3-2.87-7.01-4.31-12.04-4.31-6.23,0-11.92,1.38-17.07,4.13-5.15,2.76-9.64,6.41-13.47,10.96-3.83,4.55-7.13,9.76-9.88,15.63-2.76,5.87-4.85,11.8-6.29,17.79l18.68-2.87c9.1-1.44,16.53-3.29,22.28-5.57,5.75-2.27,10.3-4.79,13.65-7.54Z"/>
    <path class="st0" d="M459.44,257.63c-5.03,7.9-11.74,14.61-20.12,20.12-8.39,5.51-17.91,10-28.56,13.47-10.66,3.48-21.74,6.05-33.24,7.73l-24.07,3.95c1.44,11.5,5.27,20.06,11.5,25.69,6.23,5.63,15.33,8.44,27.31,8.44,9.58,0,18.02-1.02,25.33-3.05,7.3-2.03,15.03-4.73,23.17-8.08,1.17,1.47,2.19,3.07,3.13,4.73,12.21-26.4,19.65-55.44,21.14-86.06-1.25,4.71-3.05,9.09-5.58,13.07Z"/>
    <path class="st0" d="M402.31,376.74c-5.75.6-10.9.9-15.45.9-14.61,0-27.13-1.8-37.55-5.39-10.42-3.59-19.04-8.68-25.87-15.27-6.83-6.58-11.86-14.61-15.09-24.07-3.23-9.46-4.85-19.94-4.85-31.44,0-8.77.92-17.44,2.74-26.04l-50.16,97.9c-4.31.72-9.16,1.26-14.55,1.62-5.39.36-10.48.54-15.27.54-8.62,0-16.89-.72-24.79-2.16l-10.42-118.21-50.66,118.21c-4.55.48-9.34.96-14.37,1.44-5.03.48-9.94.72-14.73.72-4.07,0-8.39-.18-12.93-.54-4.55-.36-8.75-.9-12.57-1.62l-19.04-185.76c9.34-1.44,19.16-2.16,29.46-2.16,4.07,0,8.2.12,12.4.36,4.19.24,8.32.84,12.39,1.8l5.03,128.99,53.53-128.99c7.42-1.44,15.57-2.16,24.43-2.16s17.6.72,26.23,2.16l10.06,129.35,34.84-80.84c4.07-9.34,6.81-17.61,8.25-24.79,1.44-7.19,2.13-13.17,2.13-17.97,0-1.2-.12-2.27-.24-3.23-.12-.95-.29-1.8-.29-2.52,7.9-1.44,16.78-2.16,27.08-2.16s19.48.72,26.86,2.16v1.44c0,7.67-.87,15.69-3.51,24.07-.58,1.83-.8,3.74-1.53,5.72,8.95-10.37,19.72-18.82,32.34-25.3,13.29-6.83,28.2-10.24,44.73-10.24,7.9,0,15.27.96,22.1,2.87,6.83,1.92,12.75,4.85,17.79,8.8,5.03,3.95,8.98,8.8,11.86,14.55.42.84.8,1.7,1.15,2.58.39,2.26.68,4.55,1.01,6.84C457.49,97.03,356.37.45,232.66.45S0,104.61,0,233.1s104.16,232.66,232.66,232.66c75.24,0,142.1-35.75,184.63-91.16-4.99.88-9.98,1.61-14.97,2.14ZM163.01,43.91c9.14-3.33,19.26,1.39,22.58,10.53,3.32,9.14-1.39,19.25-10.54,22.58-9.15,3.33-19.26-1.39-22.59-10.53-3.32-9.14,1.39-19.25,10.54-22.58Z"/>
  </g>
  <g>
    <path class="st2" d="M398.76,445.82c0,1.35.34,2.45,1.02,3.28.68.83,1.66,1.25,2.95,1.25,1.18,0,2.11-.31,2.81-.93.7-.62,1.05-1.55,1.05-2.78,0-1.01-.28-1.77-.83-2.29-.55-.52-1.19-.94-1.93-1.25l-5.34-2.03c-2.09-.77-3.67-1.87-4.74-3.28-1.07-1.41-1.6-3.22-1.6-5.42,0-1.28.2-2.48.61-3.62.4-1.14,1.05-2.14,1.93-2.99.88-.85,2.01-1.53,3.39-2.03,1.38-.5,3.04-.75,4.99-.75,3.45,0,6.01.77,7.66,2.32,1.65,1.55,2.48,3.73,2.48,6.55v1.28h-6.83c0-1.62-.25-2.81-.74-3.57-.5-.75-1.37-1.13-2.62-1.13-.96,0-1.79.28-2.51.84s-1.07,1.4-1.07,2.52c0,.77.23,1.47.69,2.09.46.62,1.33,1.14,2.62,1.57l4.57,1.62c2.39.85,4.08,1.96,5.07,3.33.99,1.37,1.49,3.24,1.49,5.6,0,1.66-.28,3.1-.83,4.32s-1.31,2.23-2.29,3.04c-.97.81-2.13,1.39-3.47,1.74-1.34.35-2.82.52-4.44.52-2.13,0-3.9-.21-5.32-.64-1.41-.42-2.53-1.06-3.36-1.91-.83-.85-1.41-1.88-1.74-3.1-.33-1.22-.5-2.58-.5-4.09v-1.1h6.83v1.04Z"/>
    <path class="st2" d="M439.31,423.78l-7.44,31.2h-8.82l-7.66-31.2h7.93l4.24,22.33h.11l4.02-22.33h7.6Z"/>
    <path class="st2" d="M450,413.11v6.84h-7.6v-6.84h7.6ZM450,423.78v31.2h-7.6v-31.2h7.6Z"/>
    <path class="st2" d="M463.22,413.57v41.41h-7.6v-41.41h7.6Z"/>
    <path class="st2" d="M483.67,451.33c-.81,1.55-1.85,2.65-3.14,3.31-1.29.66-2.75.99-4.41.99-2.42,0-4.29-.67-5.59-2-1.3-1.33-1.96-3.57-1.96-6.7v-23.14h7.6v21.52c0,1.62.26,2.75.77,3.39.51.64,1.34.96,2.48.96,2.68,0,4.02-1.72,4.02-5.16v-20.71h7.6v31.2h-7.27v-3.65h-.11Z"/>
    <path class="st2" d="M503.39,423.78v3.31h.11c.85-1.47,1.79-2.52,2.84-3.16,1.05-.64,2.34-.96,3.88-.96,3.12,0,5.42,1.29,6.89,3.86,1.47,2.57,2.21,6.76,2.21,12.56s-.74,9.96-2.21,12.47-3.77,3.77-6.89,3.77c-1.43,0-2.65-.28-3.66-.84-1.01-.56-1.92-1.46-2.73-2.7h-.11v12.93h-7.6v-41.24h7.27ZM504.47,447.07c.5,1.72,1.59,2.58,3.28,2.58s2.73-.86,3.22-2.58c.5-1.72.74-4.28.74-7.68s-.25-5.96-.74-7.69c-.5-1.72-1.57-2.58-3.22-2.58s-2.78.86-3.28,2.58c-.5,1.72-.74,4.28-.74,7.69s.25,5.96.74,7.68Z"/>
    <path class="st2" d="M530.94,423.78v3.31h.11c.84-1.47,1.79-2.52,2.84-3.16,1.05-.64,2.34-.96,3.88-.96,3.12,0,5.42,1.29,6.89,3.86,1.47,2.57,2.2,6.76,2.2,12.56s-.74,9.96-2.2,12.47c-1.47,2.51-3.77,3.77-6.89,3.77-1.43,0-2.65-.28-3.67-.84-1.01-.56-1.92-1.46-2.73-2.7h-.11v12.93h-7.6v-41.24h7.27ZM532.02,447.07c.5,1.72,1.59,2.58,3.28,2.58s2.73-.86,3.22-2.58c.5-1.72.74-4.28.74-7.68s-.25-5.96-.74-7.69c-.5-1.72-1.57-2.58-3.22-2.58s-2.78.86-3.28,2.58c-.5,1.72-.74,4.28-.74,7.69s.25,5.96.74,7.68Z"/>
    <path class="st2" d="M559.1,413.11v6.84h-7.6v-6.84h7.6ZM559.1,423.78v31.2h-7.6v-31.2h7.6Z"/>
    <path class="st2" d="M564.39,432.6c0-1.82.28-3.33.83-4.55.55-1.22,1.29-2.2,2.23-2.96.94-.75,2.04-1.29,3.31-1.62,1.27-.33,2.62-.49,4.05-.49,2.28,0,4.11.23,5.51.7,1.4.46,2.48,1.12,3.25,1.97s1.29,1.87,1.57,3.04.41,2.46.41,3.86v16.41c0,1.47.06,2.61.19,3.42.13.81.38,1.68.74,2.61h-7.27c-.26-.5-.45-1.03-.58-1.59s-.25-1.11-.36-1.65h-.11c-.88,1.62-1.9,2.68-3.06,3.16s-2.65.72-4.49.72c-1.32,0-2.44-.24-3.36-.72-.92-.48-1.65-1.15-2.2-2s-.96-1.81-1.21-2.87c-.26-1.06-.39-2.12-.39-3.16,0-1.47.15-2.74.44-3.8s.74-1.97,1.35-2.73c.61-.75,1.38-1.38,2.31-1.89.94-.5,2.07-.95,3.39-1.33l4.3-1.22c1.14-.31,1.93-.73,2.37-1.28.44-.54.66-1.33.66-2.38,0-1.2-.27-2.14-.8-2.81-.53-.68-1.44-1.02-2.73-1.02-1.18,0-2.06.37-2.64,1.1-.59.74-.88,1.72-.88,2.96v.87h-6.83v-.75ZM576.62,440.4c-.59.25-1.12.43-1.6.55-1.54.35-2.65.93-3.31,1.74-.66.81-.99,1.91-.99,3.31,0,1.2.22,2.22.66,3.07.44.85,1.17,1.28,2.2,1.28.51,0,1.05-.09,1.6-.26.55-.17,1.06-.45,1.51-.84.46-.39.84-.89,1.13-1.51.29-.62.44-1.35.44-2.2v-6.15c-.51.43-1.07.76-1.65,1.01Z"/>
    <path class="st2" d="M598.22,423.78v3.19h.11c.96-1.43,2.03-2.46,3.22-3.07,1.19-.62,2.62-.93,4.27-.93,1.76,0,3.24.43,4.44,1.28,1.19.85,1.99,2.09,2.4,3.71h.11c.59-1.66,1.53-2.91,2.84-3.74s2.86-1.25,4.66-1.25c2.54,0,4.4.8,5.59,2.41,1.19,1.61,1.79,3.92,1.79,6.93v22.68h-7.6v-21.81c0-1.31-.23-2.32-.69-3.02-.46-.7-1.22-1.04-2.29-1.04-1.21,0-2.18.43-2.89,1.28-.72.85-1.07,2.2-1.07,4.06v20.53h-7.6v-21.81c0-1.31-.23-2.32-.69-3.02-.46-.7-1.22-1.04-2.29-1.04-1.21,0-2.18.43-2.89,1.28-.72.85-1.07,2.2-1.07,4.06v20.53h-7.6v-31.2h7.27Z"/>
    <path class="st2" d="M632.32,432.31c.4-2.05,1.07-3.76,1.98-5.13.92-1.37,2.12-2.42,3.61-3.13,1.49-.71,3.32-1.07,5.48-1.07,2.28-.04,4.17.28,5.68.96,1.51.68,2.7,1.71,3.58,3.1.88,1.39,1.51,3.11,1.87,5.16.37,2.05.55,4.45.55,7.19s-.2,5.03-.61,7.08c-.4,2.05-1.07,3.76-1.98,5.13-.92,1.37-2.12,2.39-3.61,3.04-1.49.66-3.32.99-5.48.99-2.28.04-4.17-.26-5.67-.9-1.51-.64-2.7-1.64-3.58-3.02-.88-1.37-1.51-3.09-1.87-5.16-.37-2.07-.55-4.46-.55-7.16s.2-5.03.61-7.08ZM639.43,443.79c.07,1.35.25,2.51.52,3.48.28.97.69,1.72,1.24,2.26.55.54,1.29.81,2.2.81,1.54,0,2.61-.85,3.2-2.55.59-1.7.88-4.5.88-8.41s-.29-6.71-.88-8.41c-.59-1.7-1.65-2.55-3.2-2.55-.92,0-1.65.27-2.2.81-.55.54-.96,1.3-1.24,2.26-.28.97-.45,2.13-.52,3.48-.07,1.35-.11,2.82-.11,4.41s.04,3.05.11,4.41Z"/>
    <path class="st1" d="M686.51,432.77c-.09-.73-.26-1.4-.5-2-.24-.6-.58-1.08-1.02-1.45-.44-.37-1.03-.55-1.76-.55-.92,0-1.67.22-2.26.67s-1.03,1.1-1.32,1.97-.5,1.97-.61,3.31c-.11,1.33-.17,2.91-.17,4.73,0,1.93.06,3.59.17,4.96.11,1.37.31,2.5.61,3.39.29.89.71,1.54,1.24,1.94.53.41,1.22.61,2.07.61,1.29,0,2.22-.58,2.81-1.74.59-1.16.88-3.02.88-5.57h7.27c0,4.1-.87,7.22-2.62,9.37-1.75,2.15-4.64,3.22-8.68,3.22-1.91,0-3.57-.24-4.99-.72-1.42-.48-2.59-1.35-3.53-2.61-.94-1.26-1.64-2.94-2.12-5.05-.48-2.11-.72-4.73-.72-7.86s.29-5.87.88-7.98c.59-2.11,1.41-3.79,2.48-5.05,1.06-1.26,2.33-2.14,3.8-2.64,1.47-.5,3.09-.75,4.85-.75,3.53,0,6.18,1.08,7.96,3.25,1.78,2.17,2.67,5.1,2.67,8.82h-7.27c0-.77-.05-1.53-.14-2.26Z"/>
    <path class="st1" d="M697.5,432.31c.4-2.05,1.07-3.76,1.98-5.13.92-1.37,2.12-2.42,3.61-3.13,1.49-.71,3.32-1.07,5.48-1.07,2.28-.04,4.17.28,5.68.96,1.51.68,2.7,1.71,3.58,3.1.88,1.39,1.51,3.11,1.87,5.16.37,2.05.55,4.45.55,7.19s-.2,5.03-.61,7.08c-.4,2.05-1.07,3.76-1.98,5.13-.92,1.37-2.12,2.39-3.61,3.04-1.49.66-3.32.99-5.48.99-2.28.04-4.17-.26-5.67-.9-1.51-.64-2.7-1.64-3.58-3.02-.88-1.37-1.51-3.09-1.87-5.16-.37-2.07-.55-4.46-.55-7.16s.2-5.03.61-7.08ZM704.61,443.79c.07,1.35.25,2.51.52,3.48.28.97.69,1.72,1.24,2.26.55.54,1.29.81,2.2.81,1.54,0,2.61-.85,3.2-2.55.59-1.7.88-4.5.88-8.41s-.29-6.71-.88-8.41c-.59-1.7-1.65-2.55-3.2-2.55-.92,0-1.65.27-2.2.81-.55.54-.96,1.3-1.24,2.26-.28.97-.45,2.13-.52,3.48-.07,1.35-.11,2.82-.11,4.41s.04,3.05.11,4.41Z"/>
    <path class="st1" d="M731.61,423.78v3.19h.11c.96-1.43,2.03-2.46,3.22-3.07,1.19-.62,2.62-.93,4.27-.93,1.76,0,3.24.43,4.44,1.28,1.19.85,1.99,2.09,2.4,3.71h.11c.59-1.66,1.53-2.91,2.84-3.74s2.86-1.25,4.66-1.25c2.54,0,4.4.8,5.59,2.41,1.19,1.61,1.79,3.92,1.79,6.93v22.68h-7.6v-21.81c0-1.31-.23-2.32-.69-3.02-.46-.7-1.22-1.04-2.29-1.04-1.21,0-2.18.43-2.89,1.28-.72.85-1.07,2.2-1.07,4.06v20.53h-7.6v-21.81c0-1.31-.23-2.32-.69-3.02-.46-.7-1.22-1.04-2.29-1.04-1.21,0-2.18.43-2.89,1.28-.72.85-1.07,2.2-1.07,4.06v20.53h-7.6v-31.2h7.27Z"/>
    <path class="st1" d="M781.2,451.33c-.81,1.55-1.86,2.65-3.14,3.31-1.29.66-2.75.99-4.41.99-2.42,0-4.29-.67-5.59-2s-1.96-3.57-1.96-6.7v-23.14h7.6v21.52c0,1.62.26,2.75.77,3.39.51.64,1.34.96,2.48.96,2.68,0,4.02-1.72,4.02-5.16v-20.71h7.6v31.2h-7.27v-3.65h-.11Z"/>
    <path class="st1" d="M800.93,423.78v3.65h.11c.81-1.55,1.85-2.68,3.14-3.39,1.29-.71,2.75-1.07,4.41-1.07,2.42,0,4.29.7,5.59,2.09,1.3,1.39,1.96,3.65,1.96,6.79v23.14h-7.6v-21.52c0-1.62-.26-2.76-.77-3.39-.52-.64-1.34-.96-2.48-.96-2.68,0-4.02,1.72-4.02,5.16v20.71h-7.6v-31.2h7.27Z"/>
    <path class="st1" d="M829.08,413.11v6.84h-7.6v-6.84h7.6ZM829.08,423.78v31.2h-7.6v-31.2h7.6Z"/>
    <path class="st1" d="M848.56,432.77c-.09-.73-.26-1.4-.5-2-.24-.6-.58-1.08-1.02-1.45-.44-.37-1.03-.55-1.76-.55-.92,0-1.67.22-2.26.67s-1.03,1.1-1.32,1.97-.5,1.97-.61,3.31c-.11,1.33-.17,2.91-.17,4.73,0,1.93.06,3.59.17,4.96.11,1.37.31,2.5.61,3.39.29.89.71,1.54,1.24,1.94.53.41,1.22.61,2.07.61,1.29,0,2.22-.58,2.81-1.74.59-1.16.88-3.02.88-5.57h7.27c0,4.1-.87,7.22-2.62,9.37-1.75,2.15-4.64,3.22-8.68,3.22-1.91,0-3.57-.24-4.99-.72-1.42-.48-2.59-1.35-3.53-2.61-.94-1.26-1.64-2.94-2.12-5.05-.48-2.11-.72-4.73-.72-7.86s.29-5.87.88-7.98c.59-2.11,1.41-3.79,2.48-5.05,1.06-1.26,2.33-2.14,3.8-2.64,1.47-.5,3.09-.75,4.85-.75,3.53,0,6.18,1.08,7.96,3.25,1.78,2.17,2.67,5.1,2.67,8.82h-7.27c0-.77-.05-1.53-.14-2.26Z"/>
    <path class="st1" d="M859.88,432.6c0-1.82.28-3.33.83-4.55.55-1.22,1.29-2.2,2.23-2.96.94-.75,2.04-1.29,3.31-1.62,1.27-.33,2.62-.49,4.05-.49,2.28,0,4.11.23,5.51.7,1.4.46,2.48,1.12,3.25,1.97s1.29,1.87,1.57,3.04.41,2.46.41,3.86v16.41c0,1.47.06,2.61.19,3.42.13.81.38,1.68.74,2.61h-7.27c-.26-.5-.45-1.03-.58-1.59s-.25-1.11-.36-1.65h-.11c-.88,1.62-1.9,2.68-3.06,3.16s-2.65.72-4.49.72c-1.32,0-2.44-.24-3.36-.72-.92-.48-1.65-1.15-2.2-2s-.96-1.81-1.21-2.87c-.26-1.06-.39-2.12-.39-3.16,0-1.47.15-2.74.44-3.8s.74-1.97,1.35-2.73c.61-.75,1.38-1.38,2.31-1.89.94-.5,2.07-.95,3.39-1.33l4.3-1.22c1.14-.31,1.93-.73,2.37-1.28.44-.54.66-1.33.66-2.38,0-1.2-.27-2.14-.8-2.81-.53-.68-1.44-1.02-2.73-1.02-1.18,0-2.06.37-2.64,1.1-.59.74-.88,1.72-.88,2.96v.87h-6.83v-.75ZM872.12,440.4c-.59.25-1.12.43-1.6.55-1.54.35-2.65.93-3.31,1.74-.66.81-.99,1.91-.99,3.31,0,1.2.22,2.22.66,3.07.44.85,1.17,1.28,2.2,1.28.51,0,1.05-.09,1.6-.26.55-.17,1.06-.45,1.51-.84.46-.39.84-.89,1.13-1.51.29-.62.44-1.35.44-2.2v-6.15c-.51.43-1.07.76-1.65,1.01Z"/>
    <path class="st1" d="M897.07,430.28h-11.3v-6.5h20.28v6.15l-11.85,18.56h11.85v6.5h-20.83v-6.15l11.85-18.56Z"/>
    <path class="st1" d="M917.79,413.11v6.84h-7.6v-6.84h7.6ZM917.79,423.78v31.2h-7.6v-31.2h7.6Z"/>
    <path class="st1" d="M922.75,432.31c.4-2.05,1.07-3.76,1.98-5.13.92-1.37,2.12-2.42,3.61-3.13,1.49-.71,3.32-1.07,5.48-1.07,2.28-.04,4.17.28,5.68.96,1.51.68,2.7,1.71,3.58,3.1.88,1.39,1.51,3.11,1.87,5.16.37,2.05.55,4.45.55,7.19s-.2,5.03-.61,7.08c-.4,2.05-1.07,3.76-1.98,5.13-.92,1.37-2.12,2.39-3.61,3.04-1.49.66-3.32.99-5.48.99-2.28.04-4.17-.26-5.67-.9-1.51-.64-2.7-1.64-3.58-3.02-.88-1.37-1.51-3.09-1.87-5.16-.37-2.07-.55-4.46-.55-7.16s.2-5.03.61-7.08ZM929.86,443.79c.07,1.35.25,2.51.52,3.48.28.97.69,1.72,1.24,2.26.55.54,1.29.81,2.2.81,1.54,0,2.61-.85,3.2-2.55.59-1.7.88-4.5.88-8.41s-.29-6.71-.88-8.41c-.59-1.7-1.65-2.55-3.2-2.55-.92,0-1.65.27-2.2.81-.55.54-.96,1.3-1.24,2.26-.28.97-.45,2.13-.52,3.48-.07,1.35-.11,2.82-.11,4.41s.04,3.05.11,4.41Z"/>
    <path class="st1" d="M956.86,423.78v3.65h.11c.81-1.55,1.85-2.68,3.14-3.39,1.29-.71,2.75-1.07,4.41-1.07,2.42,0,4.29.7,5.59,2.09,1.3,1.39,1.96,3.65,1.96,6.79v23.14h-7.6v-21.52c0-1.62-.26-2.76-.77-3.39-.52-.64-1.34-.96-2.48-.96-2.68,0-4.02,1.72-4.02,5.16v20.71h-7.6v-31.2h7.27Z"/>
    <path class="st1" d="M983.64,443.1c0,.93.06,1.83.19,2.7.13.87.34,1.64.63,2.32.29.68.68,1.22,1.16,1.62s1.07.61,1.76.61c1.29,0,2.22-.48,2.81-1.45.59-.97.99-2.44,1.21-4.41h6.83c-.15,3.63-1.07,6.4-2.75,8.29-1.69,1.9-4.35,2.84-7.99,2.84-2.75,0-4.9-.48-6.45-1.45-1.54-.97-2.68-2.24-3.42-3.83-.74-1.58-1.18-3.36-1.35-5.34-.17-1.97-.25-3.94-.25-5.92,0-2.09.14-4.1.41-6.03s.83-3.65,1.65-5.16c.83-1.51,2.01-2.71,3.55-3.6s3.6-1.33,6.17-1.33c2.2,0,4.01.38,5.43,1.13s2.53,1.82,3.33,3.19c.81,1.37,1.36,3.04,1.65,4.99.29,1.95.44,4.13.44,6.53v1.8h-15.04v2.49ZM991.18,432.69c-.11-.91-.3-1.68-.58-2.32s-.66-1.12-1.16-1.45c-.5-.33-1.13-.49-1.9-.49s-1.41.18-1.9.55c-.5.37-.89.85-1.18,1.45-.29.6-.51,1.27-.63,2-.13.73-.19,1.47-.19,2.2v1.22h7.77c-.04-1.2-.11-2.25-.22-3.16Z"/>
  </g>
</svg>