<svg width="209" height="35" viewBox="0 0 209 35" fill="none" xmlns="http://www.w3.org/2000/svg">
<path fill-rule="evenodd" clip-rule="evenodd" d="M67.26 0.649392C75.2986 0.649545 76.7224 4.94881 76.7226 7.28821C76.7226 10.9161 74.6366 13.0935 72.1924 15.0428C75.8317 16.2775 80.2746 19.4295 80.2747 24.606C80.2747 29.3388 76.5918 34.256 68.4111 34.256C67.8788 34.2559 66.5855 34.1692 65.3036 34.1259C63.9677 34.0392 62.6426 33.9958 61.969 33.9958C61.4802 33.9958 60.5022 33.9958 59.4376 34.0391C58.4164 34.0391 57.2645 34.1259 56.3736 34.1259C55.7979 34.1258 55.4824 33.9957 55.4824 33.6817C55.4826 33.4652 55.657 33.3242 56.189 33.3242C56.8515 33.3242 57.3838 33.2384 57.7857 33.1518C58.6765 32.9785 58.8943 32.0036 59.079 30.715C59.2963 28.8522 59.2965 25.3538 59.2965 21.2819V13.4944C59.2965 6.75825 59.2964 5.52341 59.2095 4.10471C59.1249 2.63961 58.7825 1.93495 57.4123 1.60867C57.1246 1.68711 56.8264 1.80603 56.5476 1.9926C55.9718 2.3933 55.2981 3.14057 54.1032 5.97779C52.3758 10.1365 51.1696 12.5303 48.7687 17.9778C45.9223 24.4434 43.837 29.2745 42.8592 31.4839C41.7077 34.0505 41.4351 34.7647 40.8158 34.7647C40.2404 34.7643 39.9683 34.1473 39.1321 32.0687L27.9422 5.01428L27.9316 4.99313C26.9104 2.55632 26.1495 2.06858 24.5525 1.62454C23.8898 1.45129 23.1729 1.45108 22.8253 1.45108C22.4233 1.45108 22.2927 1.32099 22.2927 1.05024C22.2929 0.693037 22.7823 0.649392 23.4449 0.649392C25.8023 0.649404 28.3335 0.779482 29.887 0.779482C30.9951 0.779482 33.1248 0.649392 35.3519 0.649392C35.884 0.649424 36.3723 0.736395 36.3726 1.05024C36.3726 1.36421 36.1014 1.45103 35.7105 1.45108C35.0044 1.45108 34.3299 1.49445 33.9822 1.7652C33.6674 1.9818 33.5377 2.2964 33.5377 2.69699C33.5379 3.2711 33.9393 4.5163 34.5583 6.10788L42.1961 26.2094H42.3701C44.2822 21.3358 50.0506 7.08281 51.1261 4.15865C51.3434 3.58472 51.5282 2.92427 51.5282 2.52353C51.5282 2.16613 51.3541 1.81927 50.9521 1.67848C50.4199 1.5053 49.7573 1.46166 49.1708 1.46166C48.7688 1.46166 48.4207 1.41825 48.4207 1.10418C48.421 0.747132 48.8237 0.661026 49.6599 0.661026C51.8761 0.661034 53.7449 0.790058 54.3207 0.790058C54.4838 0.790052 54.7106 0.781708 54.9795 0.772078C55.1347 0.681702 55.4045 0.649414 55.7975 0.649392C56.4173 0.649392 57.0676 0.659416 57.7051 0.67266C57.9845 0.665623 58.2512 0.661026 58.4923 0.661026C58.7123 0.661029 58.9006 0.673336 59.0493 0.706504C60.2933 0.741757 61.3509 0.779482 61.8386 0.779482C64.0113 0.779475 65.7499 0.649392 67.26 0.649392ZM64.8909 16.6896C64.7173 16.6897 64.6193 16.7764 64.6193 17.0037V27.4976C64.6193 30.4218 64.7504 31.1698 66.1736 31.7546C67.3684 32.2418 68.3895 32.2845 69.4106 32.2845C71.4095 32.2845 74.7884 31.2235 74.7885 26.6208C74.7885 23.87 73.8545 20.1545 70.4757 17.8043L70.4864 17.7938C69.5521 17.1332 68.5309 16.8196 66.8038 16.7329C65.9999 16.6896 65.5645 16.6896 64.8909 16.6896ZM66.4993 2.45796C65.8801 2.45796 65.4774 2.45804 65.032 2.54468C64.7172 2.63136 64.631 2.81591 64.631 3.30301V14.2422C64.6311 14.5988 64.7607 14.6854 64.945 14.7287C65.347 14.8154 66.0107 14.8588 67.0319 14.8588C68.4983 14.8588 69.4758 14.6852 70.2254 14.0138C71.3768 13.0824 72.0501 11.4909 72.0502 9.32522C72.0502 6.35779 70.3233 2.45811 66.4993 2.45796Z" fill="#FCF7E8"/>
<path d="M123.08 0.0433631C125.828 0.0433756 127.479 0.216827 129.522 0.487573C131.206 0.704165 132.629 1.10428 133.965 1.23427C134.454 1.27759 134.628 1.5053 134.628 1.7652C134.628 2.1226 134.498 2.65331 134.411 4.20201C134.324 5.66403 134.367 8.10073 134.28 8.9889C134.237 9.64954 134.15 10.0074 133.748 10.0074C133.389 10.0071 133.303 9.64933 133.303 9.03226C133.26 7.65683 132.683 6.10833 131.575 4.96034C130.108 3.41167 126.643 2.20941 122.558 2.20941C118.69 2.20945 116.159 3.18428 114.204 4.96034C110.966 7.92783 110.118 12.1298 110.118 16.4294C110.118 26.9672 118.159 32.1978 124.112 32.1978C128.066 32.1977 130.467 31.7536 132.238 29.7176C132.998 28.873 133.574 27.5957 133.748 26.7943C133.878 26.0904 133.965 25.9059 134.324 25.9059C134.639 25.9059 134.726 26.2203 134.726 26.5669C134.726 27.099 134.193 30.9529 133.748 32.458C133.53 33.2052 133.346 33.4331 132.597 33.7472C130.815 34.4512 127.447 34.7647 124.6 34.7647C118.516 34.7646 113.411 33.4325 109.359 29.9344V29.9239C105.002 26.1117 103.85 21.1517 103.85 16.863C103.85 13.8522 104.785 8.62101 109.043 4.73295C112.237 1.80883 116.464 0.0433631 123.08 0.0433631Z" fill="#FCF7E8"/>
<path fill-rule="evenodd" clip-rule="evenodd" d="M154.184 0C165.254 6.42205e-05 172.153 6.43297 172.153 16.5806C172.153 26.7286 165.037 34.7647 153.738 34.7647C140.973 34.7647 135.812 25.2343 135.812 17.3823C135.812 9.80118 140.843 0 154.184 0ZM152.89 2.13326C147.773 2.13337 141.951 4.97134 141.951 16.018C141.951 25.2452 147.067 32.5551 155.606 32.5553C158.724 32.5553 165.927 31.0502 165.927 18.238V18.2274C165.927 8.29606 160.191 2.13326 152.89 2.13326Z" fill="#FCF7E8"/>
<path d="M175.781 0.0105762C176.27 0.0106152 176.672 0.585156 177.422 1.38657C177.955 1.96129 184.713 9.18484 191.198 15.596C194.218 18.607 200.215 24.9851 200.976 25.6891H201.192L200.747 5.80539C200.703 3.09783 200.302 2.26318 199.237 1.81914C198.574 1.54847 197.51 1.54839 196.879 1.54839C196.347 1.54838 196.173 1.41829 196.173 1.14754C196.173 0.790492 196.663 0.746695 197.325 0.746695C199.639 0.7467 201.769 0.876785 202.703 0.876785C203.192 0.876726 204.876 0.746695 207.059 0.746695C207.635 0.7467 208.08 0.790513 208.08 1.14754C208.08 1.40742 207.809 1.54833 207.277 1.54839C206.831 1.54839 206.472 1.54851 205.94 1.67848C204.702 2.03591 204.343 2.96788 204.3 5.44791L203.811 33.3897C203.811 34.3643 203.637 34.7647 203.235 34.7647C202.746 34.7644 202.214 34.2778 201.725 33.7906C198.922 31.1372 193.24 25.3316 188.623 20.7721C183.778 15.9851 178.845 10.4511 178.052 9.61713H177.921L178.41 28.2126H178.4C178.487 31.6672 179.062 32.8154 179.953 33.1296C180.714 33.3895 181.55 33.4437 182.267 33.4437C182.756 33.4437 183.028 33.5304 183.028 33.8012C183.028 34.1585 182.625 34.2454 182.006 34.2454C179.117 34.2454 177.346 34.1153 176.499 34.1153C176.097 34.1153 174.011 34.2454 171.697 34.2454C171.121 34.2454 170.719 34.2018 170.719 33.8012C170.719 33.5304 170.991 33.4437 171.425 33.4437C172.001 33.4437 172.805 33.4001 173.424 33.2269C174.575 32.8694 174.76 31.5916 174.803 27.7366L175.205 1.51666C175.205 0.628577 175.336 0.0105762 175.781 0.0105762Z" fill="#FCF7E8"/>
<path fill-rule="evenodd" clip-rule="evenodd" d="M13.3298 0.649392C16.1327 0.649392 19.1101 0.920952 21.5002 2.55632C22.7387 3.4013 24.5196 5.65368 24.5196 8.62084C24.5196 11.9024 23.1405 14.9134 18.6536 18.5415C22.6081 23.5017 25.672 27.444 28.2902 30.184C30.778 32.7506 32.6034 33.0652 33.2661 33.1951C33.7548 33.2817 34.1567 33.3242 34.5042 33.3242C34.8517 33.3242 35.0366 33.4544 35.0368 33.6817C35.0368 34.0391 34.7215 34.1259 34.1891 34.1259H29.974C27.4861 34.1259 26.3778 33.909 25.2262 33.2808C23.3142 32.2627 21.6305 30.1835 19.1427 26.7721C17.361 24.3353 15.3177 21.3248 14.7419 20.6642C14.5247 20.3937 14.2536 20.3501 13.9388 20.3501L10.0705 20.2634C9.8534 20.2634 9.71194 20.3502 9.71194 20.6208V21.2385C9.71194 25.3538 9.71216 28.8522 9.92943 30.715C10.0598 32.0035 10.3316 32.9784 11.6567 33.1518C12.3192 33.2384 13.2971 33.3241 13.8295 33.3242C14.1878 33.3242 14.3619 33.4544 14.3621 33.6817C14.3621 33.9957 14.0467 34.1259 13.4709 34.1259C10.8961 34.1258 7.60448 33.9958 6.9418 33.9958C6.09425 33.9958 3.30197 34.1259 1.52034 34.1259C0.944785 34.1258 0.630204 33.9957 0.630204 33.6817C0.630386 33.4653 0.803905 33.3242 1.33574 33.3242C1.99845 33.3242 2.53155 33.2384 2.93353 33.1518C3.82398 32.9783 4.04111 32.0034 4.22577 30.715C4.44304 28.8522 4.44326 25.3538 4.44326 21.2819V13.4839L4.47615 13.4944C4.47615 6.75826 4.47606 5.52341 4.38915 4.10471C4.30224 2.5993 3.94292 1.89525 2.47626 1.58117C2.11756 1.49461 1.36802 1.45108 0.749031 1.45108C0.260364 1.45104 0 1.36424 0 1.05024C0.000143714 0.736396 0.314835 0.649425 0.977135 0.649392C3.33465 0.649392 6.12737 0.779482 7.06169 0.779482C8.57183 0.779467 11.95 0.649408 13.3298 0.649392ZM12.4715 2.75093C11.3635 2.75093 10.5594 2.79443 10.114 2.92438C9.79933 3.01102 9.71201 3.19479 9.71194 3.54098V17.0037L9.72361 16.9921C9.72361 17.4792 9.80998 17.653 10.1246 17.7938C11.0589 18.1078 12.3957 18.238 13.5038 18.238C15.2855 18.238 15.8617 18.0653 16.6548 17.4913C17.9911 16.5166 19.2732 14.4795 19.2732 10.8514C19.273 4.55937 15.1005 2.75093 12.4715 2.75093Z" fill="#FCF7E8"/>
<path d="M86.2065 0.638815C86.6519 0.638815 86.8696 0.768905 86.8696 1.03966C86.8695 1.31038 86.554 1.35396 85.8914 1.52723C85.4895 1.61397 85.2728 1.97161 85.2728 2.32893C85.273 2.68632 85.4895 3.21693 85.8044 3.83395C86.4236 5.16594 92.648 15.8316 93.3551 17.0788C93.8015 16.0158 99.3946 6.27236 100.015 4.9064C100.46 3.93196 100.634 3.18444 100.634 2.59968C100.634 2.15564 100.46 1.66773 99.6996 1.49445C99.2977 1.40782 98.8954 1.32094 98.8954 1.05024C98.8955 0.736393 99.1133 0.649423 99.6561 0.649392C101.123 0.649392 102.546 0.779451 103.828 0.779482C104.806 0.779482 107.74 0.649392 108.587 0.649392C109.076 0.649446 109.39 0.736406 109.39 1.00687C109.39 1.32086 109.032 1.45101 108.544 1.45108C108.098 1.45108 107.25 1.62462 106.587 1.98202C105.653 2.42602 105.164 2.95692 104.186 4.14807C102.719 5.92506 96.5059 16.3322 95.702 18.2274C95.0393 19.8194 95.0389 21.1947 95.0389 22.6568V26.2845C95.0389 26.9885 95.039 28.8522 95.1694 30.715C95.2563 32.0034 95.6584 32.9783 96.9942 33.1518C97.6133 33.2384 98.5912 33.3241 99.2105 33.3242C99.6992 33.3242 99.9169 33.4544 99.9171 33.6817C99.9171 33.9957 99.5582 34.1259 98.9824 34.1259C96.1796 34.1258 93.3876 33.9958 92.1817 33.9958C91.0736 33.9958 88.2713 34.1258 86.6308 34.1259C86.0116 34.1259 85.6526 34.0391 85.6526 33.6817C85.6529 33.4652 85.8706 33.3242 86.3592 33.3242C86.9783 33.3241 87.5106 33.2384 87.9125 33.1518C88.8032 32.9785 89.2047 32.0035 89.2917 30.715C89.4221 28.8522 89.4222 26.9993 89.4222 26.2845V22.6568H89.4551C89.4551 20.2633 89.0092 19.2885 88.4334 18.0106C88.1174 17.3052 82.1655 7.5589 80.6121 5.25225C79.5041 3.61708 78.3954 2.50226 77.548 2.01481C76.9724 1.70081 76.212 1.44065 75.6797 1.44051C75.3212 1.44051 75.0166 1.3537 75.0166 1.03966C75.0166 0.768905 75.332 0.638815 75.8643 0.638815C76.6688 0.638851 79.9921 0.768888 81.4587 0.768905C82.393 0.768905 84.2184 0.638823 86.2065 0.638815Z" fill="#FCF7E8"/>
</svg>
