<svg width="283" height="48" viewBox="0 0 283 48" fill="none" xmlns="http://www.w3.org/2000/svg">
<path d="M234.796 0C235.393 6.24666e-05 235.719 0.140797 235.719 0.465362C235.719 0.692757 235.534 0.834429 234.98 0.834479C234.285 0.834479 233.731 0.931867 233.318 1.01851C232.384 1.20266 232.155 2.20971 231.97 3.55262C231.742 5.49232 231.742 19.7547 231.742 24C231.742 28.2456 231.742 42.5087 231.97 44.4474C232.155 45.7795 232.394 46.7974 233.318 46.9815C233.731 47.079 234.285 47.1655 234.98 47.1655C235.534 47.1656 235.719 47.3064 235.719 47.5336C235.719 47.8584 235.393 47.9999 234.796 48C232.949 48 231.492 47.8593 230.428 47.8593H228.342C227.277 47.8593 225.822 48 223.975 48C223.378 48 223.051 47.8585 223.051 47.5336C223.051 47.3064 223.237 47.1655 223.79 47.1655C224.485 47.1655 225.039 47.0681 225.452 46.9815C226.386 46.7974 226.615 45.7903 226.799 44.4474C227.027 42.5088 227.027 28.2456 227.027 24C227.027 19.7547 227.027 5.4922 226.799 3.55262C226.615 2.2205 226.375 1.20262 225.452 1.01851C225.039 0.921075 224.485 0.83452 223.79 0.834479C223.236 0.834479 223.051 0.692797 223.051 0.465362C223.051 0.140725 223.378 0 223.975 0C225.822 2.19011e-05 227.277 0.140658 228.342 0.140666H230.428C231.492 0.140666 232.949 0 234.796 0Z" fill="#802126"/>
<path d="M282.076 0C282.673 0 283 0.140725 283 0.465362C283 0.692797 282.815 0.834479 282.261 0.834479C281.565 0.834498 281.011 0.931875 280.598 1.01851C279.664 1.20291 279.436 2.20993 279.252 3.55262C279.024 5.49207 279.024 19.7547 279.024 24C279.024 28.2456 279.024 42.5088 279.252 44.4474C279.436 45.7792 279.675 46.7971 280.598 46.9815C281.011 47.079 281.565 47.1655 282.261 47.1655C282.814 47.1655 283 47.3064 283 47.5336C283 47.8585 282.673 48 282.076 48C280.229 48 278.774 47.8594 277.709 47.8593H275.623C274.559 47.8593 273.102 48 271.255 48C270.658 48 270.332 47.8585 270.332 47.5336C270.332 47.3064 270.517 47.1655 271.071 47.1655C271.766 47.1655 272.32 47.0681 272.733 46.9815C273.667 46.7972 273.895 45.7901 274.08 44.4474C274.308 42.5088 274.309 28.2456 274.309 24C274.309 19.7547 274.308 5.49198 274.08 3.55262C273.895 2.22067 273.656 1.20282 272.733 1.01851C272.32 0.921036 271.766 0.834479 271.071 0.834479C270.517 0.834479 270.332 0.692797 270.332 0.465362C270.333 0.140743 270.658 1.56177e-05 271.255 0C273.102 0 274.559 0.140666 275.623 0.140666H277.709C278.774 0.140631 280.229 6.73879e-06 282.076 0Z" fill="#802126"/>
<path fill-rule="evenodd" clip-rule="evenodd" d="M67.26 7.27763C75.2986 7.27778 76.7224 11.5771 76.7226 13.9164C76.7226 17.5444 74.6366 19.7217 72.1924 21.6711C75.8317 22.9058 80.2746 26.0577 80.2747 31.2343C80.2747 35.9671 76.5918 40.8842 68.4111 40.8842C67.8788 40.8842 66.5855 40.7974 65.3036 40.7541C63.9677 40.6675 62.6426 40.624 61.969 40.624C61.4802 40.624 60.5022 40.6241 59.4376 40.6674C58.4164 40.6674 57.2645 40.7541 56.3736 40.7541C55.7979 40.7541 55.4824 40.6239 55.4824 40.3099C55.4826 40.0935 55.657 39.9524 56.189 39.9524C56.8515 39.9524 57.3838 39.8666 57.7857 39.78C58.6765 39.6067 58.8943 38.6318 59.079 37.3432C59.2963 35.4805 59.2965 31.9821 59.2965 27.9101V20.1227C59.2965 13.3865 59.2964 12.1516 59.2095 10.7329C59.1249 9.26785 58.7825 8.56319 57.4123 8.23691C57.1246 8.31535 56.8264 8.43427 56.5476 8.62084C55.9718 9.02154 55.2981 9.76881 54.1032 12.606C52.3758 16.7648 51.1696 19.1586 48.7687 24.606C45.9223 31.0717 43.837 35.9027 42.8592 38.1121C41.7077 40.6787 41.4351 41.3929 40.8158 41.3929C40.2404 41.3926 39.9683 40.7756 39.1321 38.697L27.9422 11.6425L27.9316 11.6214C26.9104 9.18456 26.1495 8.69682 24.5525 8.25278C23.8898 8.07953 23.1729 8.07932 22.8253 8.07932C22.4233 8.07932 22.2927 7.94923 22.2927 7.67848C22.2929 7.32128 22.7823 7.27763 23.4449 7.27763C25.8023 7.27764 28.3335 7.40772 29.887 7.40772C30.9951 7.40772 33.1248 7.27763 35.3519 7.27763C35.884 7.27766 36.3723 7.36463 36.3726 7.67848C36.3726 7.99245 36.1014 8.07927 35.7105 8.07932C35.0044 8.07932 34.3299 8.12269 33.9822 8.39344C33.6674 8.61004 33.5377 8.92464 33.5377 9.32522C33.5379 9.89934 33.9393 11.1445 34.5583 12.7361L42.1961 32.8377H42.3701C44.2822 27.964 50.0506 13.7111 51.1261 10.7869C51.3434 10.213 51.5282 9.55251 51.5282 9.15177C51.5282 8.79437 51.3541 8.44751 50.9521 8.30672C50.4199 8.13354 49.7573 8.0899 49.1708 8.0899C48.7688 8.0899 48.4207 8.04649 48.4207 7.73242C48.421 7.37537 48.8237 7.28927 49.6599 7.28927C51.8761 7.28927 53.7449 7.4183 54.3207 7.4183C54.4838 7.41829 54.7106 7.40995 54.9795 7.40032C55.1347 7.30994 55.4045 7.27765 55.7975 7.27763C56.4173 7.27763 57.0676 7.28765 57.7051 7.3009C57.9845 7.29386 58.2512 7.28927 58.4923 7.28927C58.7123 7.28927 58.9006 7.30158 59.0493 7.33474C60.2933 7.37 61.3509 7.40772 61.8386 7.40772C64.0113 7.40771 65.7499 7.27763 67.26 7.27763ZM64.8909 23.3178C64.7173 23.3179 64.6193 23.4046 64.6193 23.6319V34.1259C64.6193 37.05 64.7504 37.798 66.1736 38.3829C67.3684 38.87 68.3895 38.9127 69.4106 38.9127C71.4095 38.9127 74.7884 37.8518 74.7885 33.2491C74.7885 30.4982 73.8545 26.7827 70.4757 24.4326L70.4864 24.422C69.5521 23.7614 68.5309 23.4479 66.8038 23.3612C65.9999 23.3179 65.5645 23.3178 64.8909 23.3178ZM66.4993 9.0862C65.8801 9.0862 65.4774 9.08628 65.032 9.17292C64.7172 9.25959 64.631 9.44415 64.631 9.93125V20.8704C64.6311 21.2271 64.7607 21.3136 64.945 21.357C65.347 21.4436 66.0107 21.487 67.0319 21.487C68.4983 21.487 69.4758 21.3134 70.2254 20.642C71.3768 19.7106 72.0501 18.1192 72.0502 15.9535C72.0502 12.986 70.3233 9.08634 66.4993 9.0862Z" fill="#802126"/>
<path d="M123.08 6.6716C125.828 6.67162 127.479 6.84507 129.522 7.11581C131.206 7.3324 132.629 7.73252 133.965 7.86251C134.454 7.90583 134.628 8.13353 134.628 8.39344C134.628 8.75084 134.498 9.28155 134.411 10.8302C134.324 12.2923 134.367 14.729 134.28 15.6171C134.237 16.2778 134.15 16.6356 133.748 16.6356C133.389 16.6354 133.303 16.2776 133.303 15.6605C133.26 14.2851 132.683 12.7366 131.575 11.5886C130.108 10.0399 126.643 8.83765 122.558 8.83765C118.69 8.83769 116.159 9.81252 114.204 11.5886C110.966 14.5561 110.118 18.758 110.118 23.0576C110.118 33.5955 118.159 38.826 124.112 38.826C128.066 38.826 130.467 38.3818 132.238 36.3458C132.998 35.5012 133.574 34.2239 133.748 33.4225C133.878 32.7186 133.965 32.5342 134.324 32.5341C134.639 32.5341 134.726 32.8486 134.726 33.1951C134.726 33.7273 134.193 37.5811 133.748 39.0862C133.53 39.8335 133.346 40.0614 132.597 40.3755C130.815 41.0794 127.447 41.3929 124.6 41.3929C118.516 41.3929 113.411 40.0607 109.359 36.5627V36.5521C105.002 32.74 103.85 27.78 103.85 23.4913C103.85 20.4805 104.785 15.2492 109.043 11.3612C112.237 8.43707 116.464 6.6716 123.08 6.6716Z" fill="#802126"/>
<path fill-rule="evenodd" clip-rule="evenodd" d="M154.184 6.62824C165.254 6.6283 172.153 13.0612 172.153 23.2089C172.153 33.3568 165.037 41.3929 153.738 41.3929C140.973 41.3929 135.812 31.8625 135.812 24.0106C135.812 16.4294 140.843 6.62824 154.184 6.62824ZM152.89 8.7615C147.773 8.76161 141.951 11.5996 141.951 22.6462C141.951 31.8734 147.067 39.1833 155.606 39.1835C158.724 39.1835 165.927 37.6784 165.927 24.8662V24.8556C165.927 14.9243 160.191 8.7615 152.89 8.7615Z" fill="#802126"/>
<path d="M175.781 6.63882C176.27 6.63885 176.672 7.2134 177.422 8.01481C177.955 8.58953 184.713 15.8131 191.198 22.2242C194.218 25.2352 200.215 31.6134 200.976 32.3173H201.192L200.747 12.4336C200.703 9.72607 200.302 8.89142 199.237 8.44738C198.574 8.17671 197.51 8.17663 196.879 8.17663C196.347 8.17662 196.173 8.04653 196.173 7.77578C196.173 7.41873 196.663 7.37493 197.325 7.37493C199.639 7.37494 201.769 7.50502 202.703 7.50502C203.192 7.50497 204.876 7.37493 207.059 7.37493C207.635 7.37494 208.08 7.41875 208.08 7.77578C208.08 8.03566 207.809 8.17657 207.277 8.17663C206.831 8.17663 206.472 8.17675 205.94 8.30672C204.702 8.66415 204.343 9.59612 204.3 12.0761L203.811 40.018C203.811 40.9926 203.637 41.3929 203.235 41.3929C202.746 41.3926 202.214 40.906 201.725 40.4188C198.922 37.7654 193.24 31.9598 188.623 27.4003C183.778 22.6133 178.845 17.0793 178.052 16.2454H177.921L178.41 34.8408H178.4C178.487 38.2955 179.062 39.4436 179.953 39.7578C180.713 40.0177 181.55 40.0719 182.267 40.0719C182.756 40.0719 183.028 40.1586 183.028 40.4294C183.028 40.7868 182.625 40.8736 182.006 40.8736C179.117 40.8736 177.346 40.7435 176.499 40.7435C176.097 40.7435 174.011 40.8736 171.697 40.8736C171.121 40.8736 170.719 40.8301 170.719 40.4294C170.719 40.1586 170.991 40.0719 171.425 40.0719C172.001 40.0719 172.805 40.0284 173.424 39.8551C174.575 39.4976 174.76 38.2199 174.803 34.3649L175.205 8.1449C175.205 7.25682 175.336 6.63882 175.781 6.63882Z" fill="#802126"/>
<path fill-rule="evenodd" clip-rule="evenodd" d="M13.3298 7.27763C16.1327 7.27763 19.1101 7.54919 21.5002 9.18456C22.7387 10.0295 24.5196 12.2819 24.5196 15.2491C24.5196 18.5306 23.1405 21.5416 18.6536 25.1698C22.6081 30.1299 25.672 34.0723 28.2902 36.8123C30.778 39.3788 32.6034 39.6934 33.2661 39.8234C33.7548 39.91 34.1567 39.9524 34.5042 39.9524C34.8517 39.9524 35.0366 40.0827 35.0368 40.3099C35.0368 40.6673 34.7215 40.7541 34.1891 40.7541H29.974C27.4861 40.7541 26.3778 40.5372 25.2262 39.909C23.3142 38.891 21.6305 36.8117 19.1427 33.4003C17.361 30.9635 15.3177 27.9531 14.7419 27.2924C14.5247 27.0219 14.2536 26.9783 13.9388 26.9783L10.0705 26.8916C9.8534 26.8917 9.71194 26.9784 9.71194 27.2491V27.8667C9.71194 31.982 9.71216 35.4805 9.92943 37.3432C10.0598 38.6317 10.3316 39.6067 11.6567 39.78C12.3192 39.8666 13.2971 39.9524 13.8295 39.9524C14.1878 39.9524 14.3619 40.0827 14.3621 40.3099C14.3621 40.624 14.0467 40.7541 13.4709 40.7541C10.8961 40.7541 7.60448 40.624 6.9418 40.624C6.09425 40.624 3.30197 40.7541 1.52034 40.7541C0.944785 40.754 0.630204 40.6239 0.630204 40.3099C0.630386 40.0935 0.803905 39.9525 1.33574 39.9524C1.99845 39.9524 2.53155 39.8667 2.93353 39.78C3.82398 39.6066 4.04111 38.6316 4.22577 37.3432C4.44304 35.4805 4.44326 31.9821 4.44326 27.9101V20.1121L4.47615 20.1227C4.47615 13.3865 4.47606 12.1516 4.38915 10.7329C4.30224 9.22754 3.94292 8.52349 2.47626 8.20941C2.11756 8.12285 1.36802 8.07932 0.749031 8.07932C0.260364 8.07928 0 7.99248 0 7.67848C0.000143714 7.36464 0.314835 7.27766 0.977135 7.27763C3.33465 7.27763 6.12737 7.40772 7.06169 7.40772C8.57183 7.40771 11.95 7.27765 13.3298 7.27763ZM12.4715 9.37916C11.3635 9.37917 10.5594 9.42267 10.114 9.55262C9.79933 9.63926 9.71201 9.82303 9.71194 10.1692V23.6319L9.72361 23.6203C9.72361 24.1074 9.80998 24.2812 10.1246 24.422C11.0589 24.7361 12.3957 24.8662 13.5038 24.8662C15.2855 24.8662 15.8617 24.6935 16.6548 24.1195C17.9911 23.1448 19.2732 21.1078 19.2732 17.4796C19.273 11.1876 15.1005 9.37916 12.4715 9.37916Z" fill="#802126"/>
<path d="M86.2065 7.26705C86.6519 7.26705 86.8696 7.39714 86.8696 7.6679C86.8695 7.93862 86.554 7.9822 85.8914 8.15547C85.4895 8.24221 85.2728 8.59984 85.2728 8.95717C85.273 9.31455 85.4895 9.84517 85.8044 10.4622C86.4236 11.7942 92.648 22.4599 93.3551 23.707C93.8015 22.6441 99.3946 12.9006 100.015 11.5346C100.46 10.5602 100.634 9.81268 100.634 9.22792C100.634 8.78388 100.46 8.29597 99.6996 8.12269C99.2977 8.03606 98.8954 7.94918 98.8954 7.67848C98.8955 7.36463 99.1133 7.27766 99.6561 7.27763C101.123 7.27763 102.546 7.40769 103.828 7.40772C104.806 7.40772 107.74 7.27763 108.587 7.27763C109.076 7.27769 109.39 7.36465 109.39 7.63511C109.39 7.9491 109.032 8.07925 108.544 8.07932C108.098 8.07932 107.25 8.25286 106.587 8.61026C105.653 9.05426 105.164 9.58516 104.186 10.7763C102.719 12.5533 96.5059 22.9604 95.702 24.8556C95.0393 26.4476 95.0389 27.823 95.0389 29.285V32.9127C95.0389 33.6167 95.039 35.4804 95.1694 37.3432C95.2563 38.6316 95.6584 39.6066 96.9942 39.78C97.6133 39.8666 98.5912 39.9524 99.2105 39.9524C99.6992 39.9524 99.9169 40.0827 99.9171 40.3099C99.9171 40.624 99.5582 40.7541 98.9824 40.7541C96.1796 40.7541 93.3876 40.624 92.1817 40.624C91.0736 40.624 88.2713 40.7541 86.6308 40.7541C86.0116 40.7541 85.6526 40.6673 85.6526 40.3099C85.6529 40.0935 85.8706 39.9524 86.3592 39.9524C86.9783 39.9524 87.5106 39.8666 87.9125 39.78C88.8032 39.6067 89.2047 38.6317 89.2917 37.3432C89.4221 35.4804 89.4222 33.6275 89.4222 32.9127V29.285H89.4551C89.4551 26.8916 89.0092 25.9168 88.4334 24.6388C88.1174 23.9334 82.1655 14.1871 80.6121 11.8805C79.5041 10.2453 78.3954 9.1305 77.548 8.64305C76.9724 8.32905 76.212 8.06889 75.6797 8.06875C75.3212 8.06875 75.0166 7.98194 75.0166 7.6679C75.0166 7.39714 75.332 7.26705 75.8643 7.26705C76.6688 7.26709 79.9921 7.39713 81.4587 7.39714C82.393 7.39714 84.2184 7.26706 86.2065 7.26705Z" fill="#802126"/>
<path d="M253.025 13.0502C255.545 13.0502 258.066 13.2018 260.586 13.505C260.793 13.5375 261 13.6138 261.162 13.7546C263.498 15.7149 265.161 18.3138 266.54 21.1729C266.703 21.5194 266.671 21.9313 266.443 22.2454C262.673 27.4114 258.446 32.1764 253.742 36.5627C253.34 36.9417 252.711 36.9416 252.309 36.5627C247.605 32.1764 243.378 27.4006 239.608 22.2454C239.38 21.9313 239.348 21.5195 239.511 21.1729C240.89 18.303 242.553 15.7148 244.889 13.7546C245.051 13.614 245.257 13.5267 245.464 13.505C247.984 13.2018 250.505 13.0503 253.025 13.0502Z" fill="#802126"/>
</svg>
