<?xml version="1.0" encoding="UTF-8"?>
<svg id="Livello_2" data-name="Livello 2" xmlns="http://www.w3.org/2000/svg" viewBox="0 0 55.17 44.32">
  <defs>
    <style>
      .cls-1 {
        fill: #802126;
      }
    </style>
  </defs>
  <g id="Livello_1" data-name="Livello 1">
    <g>
      <path class="cls-1" d="M35.08,12.69c-.15-.13-.34-.2-.53-.23-2.32-.28-4.64-.42-6.96-.42s-4.64.14-6.96.42c-.19.02-.38.1-.53.23-2.15,1.81-3.68,4.2-4.95,6.85-.15.32-.12.7.09.99,3.47,4.76,7.36,9.17,11.69,13.22.37.35.95.35,1.32,0,4.33-4.05,8.22-8.45,11.69-13.22.21-.29.24-.67.09-.99-1.27-2.64-2.8-5.04-4.95-6.85Z"/>
      <path class="cls-1" d="M9.44.94c.38-.08.89-.17,1.53-.17.51,0,.68-.13.68-.34,0-.3-.3-.43-.85-.43-1.7,0-3.04.13-4.02.13-.08,0-.87,0-.96,0-.08,0-.88,0-.96,0-.98,0-2.32-.13-4.02-.13C.3,0,0,.13,0,.43c0,.21.17.34.68.34.64,0,1.15.08,1.53.17.85.17,1.07,1.11,1.24,2.34.21,1.79.21,14.96.21,18.88s0,17.09-.21,18.88c-.17,1.24-.38,2.17-1.24,2.34-.38.08-.89.17-1.53.17-.51,0-.68.13-.68.34,0,.3.3.43.85.43,1.7,0,3.04-.13,4.02-.13.08,0,.87,0,.96,0,.08,0,.88,0,.96,0,.98,0,2.32.13,4.02.13.55,0,.85-.13.85-.43,0-.21-.17-.34-.68-.34-.64,0-1.15-.08-1.53-.17-.85-.17-1.07-1.11-1.24-2.34-.21-1.79-.21-14.96-.21-18.88s0-17.09.21-18.88c.17-1.24.38-2.17,1.24-2.34Z"/>
      <path class="cls-1" d="M52.96.94c.38-.08.89-.17,1.53-.17.51,0,.68-.13.68-.34,0-.3-.3-.43-.85-.43-1.7,0-3.04.13-4.02.13-.08,0-.87,0-.96,0-.08,0-.88,0-.96,0-.98,0-2.32-.13-4.02-.13-.55,0-.85.13-.85.43,0,.21.17.34.68.34.64,0,1.15.08,1.53.17.85.17,1.07,1.11,1.24,2.34.21,1.79.21,14.96.21,18.88s0,17.09-.21,18.88c-.17,1.24-.38,2.17-1.24,2.34-.38.08-.89.17-1.53.17-.51,0-.68.13-.68.34,0,.3.3.43.85.43,1.7,0,3.04-.13,4.02-.13.08,0,.87,0,.96,0,.08,0,.88,0,.96,0,.98,0,2.32.13,4.02.13.55,0,.85-.13.85-.43,0-.21-.17-.34-.68-.34-.64,0-1.15-.08-1.53-.17-.85-.17-1.07-1.11-1.24-2.34-.21-1.79-.21-14.96-.21-18.88s0-17.09.21-18.88c.17-1.24.38-2.17,1.24-2.34Z"/>
    </g>
  </g>
</svg>