<svg width="18" height="42" viewBox="0 0 18 42" fill="none" xmlns="http://www.w3.org/2000/svg">
<path d="M8.88281 0C9.18733 7.82077e-05 9.43758 0.0977345 9.63281 0.292969C9.82803 0.480402 9.92572 0.726723 9.92578 1.03125V36.3281L9.8418 38.8154L13.3477 34.9805L16.0195 32.3555C16.1132 32.2619 16.2228 32.1913 16.3477 32.1445C16.4803 32.0978 16.6173 32.0742 16.7578 32.0742C17.0467 32.0743 17.2852 32.172 17.4727 32.3672C17.6679 32.5624 17.7656 32.8048 17.7656 33.0938C17.7656 33.3749 17.6599 33.629 17.4492 33.8555L9.66797 41.6484C9.55871 41.7655 9.43734 41.8516 9.30469 41.9062C9.17198 41.9687 9.03111 42 8.88281 42C8.74225 42 8.60541 41.9687 8.47266 41.9062C8.33986 41.8516 8.21484 41.7656 8.09766 41.6484L0.328125 33.8555C0.109375 33.6289 0 33.375 0 33.0938C6.59826e-05 32.8048 0.093816 32.5624 0.28125 32.3672C0.476504 32.1721 0.718916 32.0742 1.00781 32.0742C1.1483 32.0743 1.28136 32.0977 1.40625 32.1445C1.53896 32.1914 1.6524 32.2618 1.74609 32.3555L4.41797 34.9805L7.92383 38.8369L7.83984 36.3281V1.03125C7.83991 0.726703 7.93757 0.480406 8.13281 0.292969C8.32808 0.09788 8.5783 0 8.88281 0Z" fill="#FCF7E8"/>
</svg>
