<?xml version="1.0" encoding="UTF-8"?>
<svg id="Livello_2" data-name="Livello 2" xmlns="http://www.w3.org/2000/svg" viewBox="0 0 260.5 44.32">
  <defs>
    <style>
      .cls-1 {
        fill: #802126;
      }
    </style>
  </defs>
  <g id="Livello_1" data-name="Livello 1">
    <g>
      <g>
        <g>
          <path class="cls-1" d="M4.13,18.57c0-6.22,0-7.36-.08-8.67-.08-1.39-.41-2.04-1.76-2.33-.33-.08-1.02-.12-1.59-.12-.45,0-.69-.08-.69-.37s.29-.37.9-.37c2.17,0,4.74.12,5.6.12,1.39,0,4.5-.12,5.77-.12,2.58,0,5.32.25,7.52,1.76,1.14.78,2.78,2.86,2.78,5.6,0,3.03-1.27,5.81-5.4,9.16,3.64,4.58,6.46,8.22,8.87,10.75,2.29,2.37,3.97,2.66,4.58,2.78.45.08.82.12,1.14.12s.49.12.49.33c0,.33-.29.41-.78.41h-3.88c-2.29,0-3.31-.2-4.37-.78-1.76-.94-3.31-2.86-5.6-6.01-1.64-2.25-3.52-5.03-4.05-5.64-.2-.25-.45-.29-.74-.29l-3.56-.08c-.2,0-.33.08-.33.33v.57c0,3.8,0,7.03.2,8.75.12,1.19.37,2.09,1.59,2.25.61.08,1.51.16,2,.16.33,0,.49.12.49.33,0,.29-.29.41-.82.41-2.37,0-5.4-.12-6.01-.12-.78,0-3.35.12-4.99.12-.53,0-.82-.12-.82-.41,0-.2.16-.33.65-.33.61,0,1.1-.08,1.47-.16.82-.16,1.02-1.06,1.19-2.25.2-1.72.2-4.95.2-8.71v-7.2ZM8.95,21.8c0,.45.08.61.37.74.86.29,2.09.41,3.11.41,1.64,0,2.17-.16,2.9-.69,1.23-.9,2.41-2.78,2.41-6.13,0-5.81-3.84-7.48-6.26-7.48-1.02,0-1.76.04-2.17.16-.29.08-.37.25-.37.57v12.43Z"/>
          <path class="cls-1" d="M25.72,10.72c-.94-2.25-1.64-2.7-3.11-3.11-.61-.16-1.27-.16-1.59-.16-.37,0-.49-.12-.49-.37,0-.33.45-.37,1.06-.37,2.17,0,4.5.12,5.93.12,1.02,0,2.98-.12,5.03-.12.49,0,.94.08.94.37s-.25.37-.61.37c-.65,0-1.27.04-1.59.29-.29.2-.41.49-.41.86,0,.53.37,1.68.94,3.15l7.03,18.56h.16c1.76-4.5,7.07-17.66,8.06-20.36.2-.53.37-1.14.37-1.51,0-.33-.16-.65-.53-.78-.49-.16-1.1-.2-1.64-.2-.37,0-.69-.04-.69-.33,0-.33.37-.41,1.14-.41,2.04,0,3.76.12,4.29.12.69,0,2.62-.12,3.84-.12.53,0,.86.08.86.37s-.25.37-.65.37-1.27,0-2,.49c-.53.37-1.15,1.06-2.25,3.68-1.59,3.84-2.7,6.05-4.91,11.08-2.62,5.97-4.54,10.43-5.44,12.47-1.06,2.37-1.31,3.03-1.88,3.03-.53,0-.78-.57-1.55-2.49l-10.3-24.98Z"/>
          <path class="cls-1" d="M54.59,18.57c0-6.22,0-7.36-.08-8.67-.08-1.39-.41-2.04-1.76-2.33-.33-.08-1.02-.12-1.59-.12-.45,0-.69-.08-.69-.37s.29-.37.9-.37c2.17,0,4.74.12,5.56.12,2,0,3.6-.12,4.99-.12,7.4,0,8.71,3.97,8.71,6.13,0,3.35-1.92,5.36-4.17,7.16,3.35,1.14,7.44,4.05,7.44,8.83,0,4.37-3.39,8.91-10.92,8.91-.49,0-1.68-.08-2.86-.12-1.23-.08-2.45-.12-3.07-.12-.45,0-1.35,0-2.33.04-.94,0-2,.08-2.82.08-.53,0-.82-.12-.82-.41,0-.2.16-.33.65-.33.61,0,1.1-.08,1.47-.16.82-.16,1.02-1.06,1.19-2.25.2-1.72.2-4.95.2-8.71v-7.2ZM59.49,19.27c0,.33.12.41.29.45.37.08.98.12,1.92.12,1.35,0,2.25-.16,2.94-.78,1.06-.86,1.68-2.33,1.68-4.33,0-2.74-1.59-6.34-5.11-6.34-.57,0-.94,0-1.35.08-.29.08-.37.25-.37.7v10.1ZM64.89,22.54c-.86-.61-1.8-.9-3.39-.98-.74-.04-1.14-.04-1.76-.04-.16,0-.25.08-.25.29v9.69c0,2.7.12,3.39,1.43,3.93,1.1.45,2.04.49,2.98.49,1.84,0,4.95-.98,4.95-5.23,0-2.54-.86-5.97-3.97-8.14Z"/>
          <path class="cls-1" d="M82.35,27.03c0-2.21-.41-3.11-.94-4.29-.29-.65-5.77-9.65-7.2-11.78-1.02-1.51-2.04-2.54-2.82-2.99-.53-.29-1.23-.53-1.72-.53-.33,0-.61-.08-.61-.37,0-.25.29-.37.78-.37.74,0,3.8.12,5.15.12.86,0,2.54-.12,4.37-.12.41,0,.61.12.61.37s-.29.29-.9.45c-.37.08-.57.41-.57.74s.2.82.49,1.39c.57,1.23,6.3,11.08,6.95,12.23.41-.98,5.56-9.98,6.13-11.24.41-.9.57-1.59.57-2.13,0-.41-.16-.86-.86-1.02-.37-.08-.74-.16-.74-.41,0-.29.2-.37.7-.37,1.35,0,2.66.12,3.84.12.9,0,3.6-.12,4.38-.12.45,0,.74.08.74.33,0,.29-.33.41-.78.41-.41,0-1.19.16-1.8.49-.86.41-1.31.9-2.21,2-1.35,1.64-7.07,11.25-7.81,13-.61,1.47-.61,2.74-.61,4.09v3.35c0,.65,0,2.37.12,4.09.08,1.19.45,2.09,1.68,2.25.57.08,1.47.16,2.04.16.45,0,.65.12.65.33,0,.29-.33.41-.86.41-2.58,0-5.15-.12-6.26-.12-1.02,0-3.6.12-5.11.12-.57,0-.9-.08-.9-.41,0-.2.2-.33.65-.33.57,0,1.06-.08,1.43-.16.82-.16,1.19-1.06,1.27-2.25.12-1.72.12-3.43.12-4.09v-3.35Z"/>
          <path class="cls-1" d="M100.67,33.74c-4.01-3.52-5.07-8.1-5.07-12.06,0-2.78.86-7.61,4.78-11.2,2.94-2.7,6.83-4.33,12.92-4.33,2.53,0,4.05.16,5.93.41,1.55.2,2.86.57,4.09.69.45.04.61.25.61.49,0,.33-.12.82-.2,2.25-.08,1.35-.04,3.6-.12,4.42-.04.61-.12.94-.49.94-.33,0-.41-.33-.41-.9-.04-1.27-.57-2.7-1.59-3.76-1.35-1.43-4.54-2.54-8.3-2.54-3.56,0-5.89.9-7.69,2.54-2.98,2.74-3.76,6.62-3.76,10.59,0,9.73,7.4,14.56,12.88,14.56,3.64,0,5.85-.41,7.48-2.29.7-.78,1.23-1.96,1.39-2.7.12-.65.2-.82.53-.82.29,0,.37.29.37.61,0,.49-.49,4.05-.9,5.44-.2.69-.37.9-1.06,1.19-1.64.65-4.74.94-7.36.94-5.6,0-10.3-1.23-14.03-4.46Z"/>
        </g>
        <path class="cls-1" d="M125.02,22.16c0-7,4.63-16.05,16.91-16.05,10.19,0,16.54,5.94,16.54,15.31s-6.55,16.79-16.95,16.79c-11.75,0-16.5-8.8-16.5-16.05ZM152.73,22.94c0-9.17-5.28-14.86-12-14.86-4.71,0-10.07,2.62-10.07,12.82,0,8.52,4.71,15.27,12.57,15.27,2.87,0,9.5-1.39,9.5-13.22Z"/>
        <path class="cls-1" d="M164.21,32.16c.08,3.19.61,4.25,1.43,4.54.7.24,1.47.29,2.13.29.45,0,.7.08.7.33,0,.33-.37.41-.94.41-2.66,0-4.29-.12-5.07-.12-.37,0-2.29.12-4.42.12-.53,0-.9-.04-.9-.41,0-.25.25-.33.65-.33.53,0,1.27-.04,1.84-.2,1.06-.33,1.23-1.51,1.27-5.07l.37-24.21c0-.82.12-1.39.53-1.39.45,0,.82.53,1.51,1.27.49.53,6.71,7.2,12.68,13.12,2.78,2.78,8.3,8.67,9,9.32h.2l-.41-18.36c-.04-2.5-.41-3.27-1.39-3.68-.61-.25-1.59-.25-2.17-.25-.49,0-.65-.12-.65-.37,0-.33.45-.37,1.06-.37,2.13,0,4.09.12,4.95.12.45,0,2-.12,4.01-.12.53,0,.94.04.94.37,0,.24-.25.37-.74.37-.41,0-.74,0-1.23.12-1.14.33-1.47,1.19-1.51,3.48l-.45,25.8c0,.9-.16,1.27-.53,1.27-.45,0-.94-.45-1.39-.9-2.58-2.45-7.81-7.81-12.06-12.02-4.46-4.42-9-9.53-9.73-10.3h-.12l.45,17.17Z"/>
      </g>
      <g>
        <path class="cls-1" d="M240.4,12.69c-.15-.13-.34-.2-.53-.23-2.32-.28-4.64-.42-6.96-.42s-4.64.14-6.96.42c-.19.02-.38.1-.53.23-2.15,1.81-3.68,4.2-4.95,6.85-.15.32-.12.7.09.99,3.47,4.76,7.36,9.17,11.69,13.22.37.35.95.35,1.32,0,4.33-4.05,8.22-8.45,11.69-13.22.21-.29.24-.67.09-.99-1.27-2.64-2.8-5.04-4.95-6.85Z"/>
        <path class="cls-1" d="M214.77.94c.38-.08.89-.17,1.53-.17.51,0,.68-.13.68-.34,0-.3-.3-.43-.85-.43-1.7,0-3.04.13-4.02.13-.08,0-.87,0-.96,0-.08,0-.88,0-.96,0-.98,0-2.32-.13-4.02-.13-.55,0-.85.13-.85.43,0,.21.17.34.68.34.64,0,1.15.08,1.53.17.85.17,1.07,1.11,1.24,2.34.21,1.79.21,14.96.21,18.88s0,17.09-.21,18.88c-.17,1.24-.38,2.17-1.24,2.34-.38.08-.89.17-1.53.17-.51,0-.68.13-.68.34,0,.3.3.43.85.43,1.7,0,3.04-.13,4.02-.13.08,0,.87,0,.96,0,.08,0,.88,0,.96,0,.98,0,2.32.13,4.02.13.55,0,.85-.13.85-.43,0-.21-.17-.34-.68-.34-.64,0-1.15-.08-1.53-.17-.85-.17-1.07-1.11-1.24-2.34-.21-1.79-.21-14.96-.21-18.88s0-17.09.21-18.88c.17-1.24.38-2.17,1.24-2.34Z"/>
        <path class="cls-1" d="M258.28.94c.38-.08.89-.17,1.53-.17.51,0,.68-.13.68-.34,0-.3-.3-.43-.85-.43-1.7,0-3.04.13-4.02.13-.08,0-.87,0-.96,0-.08,0-.88,0-.96,0-.98,0-2.32-.13-4.02-.13-.55,0-.85.13-.85.43,0,.21.17.34.68.34.64,0,1.15.08,1.53.17.85.17,1.07,1.11,1.24,2.34.21,1.79.21,14.96.21,18.88s0,17.09-.21,18.88c-.17,1.24-.38,2.17-1.24,2.34-.38.08-.89.17-1.53.17-.51,0-.68.13-.68.34,0,.3.3.43.85.43,1.7,0,3.04-.13,4.02-.13.08,0,.87,0,.96,0,.08,0,.88,0,.96,0,.98,0,2.32.13,4.02.13.55,0,.85-.13.85-.43,0-.21-.17-.34-.68-.34-.64,0-1.15-.08-1.53-.17-.85-.17-1.07-1.11-1.24-2.34-.21-1.79-.21-14.96-.21-18.88s0-17.09.21-18.88c.17-1.24.38-2.17,1.24-2.34Z"/>
      </g>
    </g>
  </g>
</svg>